<svg id="Layer_1" enable-background="new 0 0 512.003 512.003" height="512" viewBox="0 0 512.003 512.003" width="512" xmlns="http://www.w3.org/2000/svg"><g><g clip-rule="evenodd" fill-rule="evenodd"><circle cx="256.002" cy="110.001" fill="#cbe558" r="40"/><path d="m256.001 150.001c-22.092 0-40-17.909-40-40s17.908-40 40-40 40 17.908 40 40-17.908 40-40 40zm100.001-40c0-55.229-44.771-100-100-100s-100 44.771-100 100c0 28.277 11.737 53.813 30.604 72.002 17.983 17.336 42.444 27.998 69.396 27.998 26.951 0 51.413-10.662 69.396-27.998 18.867-18.188 30.604-43.724 30.604-72.002z" fill="#fff"/><path d="m256.001 210.001c-26.951 0-51.413-10.662-69.396-27.998h-114.604c-8.8 0-16 7.2-16 16v144h200zm-100 3.114c11.044 0 19.998 8.954 19.998 19.998v8.892h8.892c11.044 0 19.998 8.954 19.998 19.998s-8.954 19.998-19.998 19.998h-8.892v8.892c0 11.044-8.953 19.998-19.998 19.998-11.044 0-19.998-8.953-19.998-19.998v-8.892h-8.892c-11.044 0-19.998-8.953-19.998-19.998 0-11.044 8.953-19.998 19.998-19.998h8.892v-8.892c.001-11.045 8.954-19.998 19.998-19.998z" fill="#e3eaef"/><path d="m175.999 242.005v-8.892c0-11.044-8.953-19.998-19.998-19.998-11.044 0-19.998 8.954-19.998 19.998v8.892h-8.892c-11.044 0-19.998 8.954-19.998 19.998s8.953 19.998 19.998 19.998h8.892v8.892c0 11.044 8.954 19.998 19.998 19.998s19.998-8.953 19.998-19.998v-8.892h8.892c11.044 0 19.998-8.953 19.998-19.998 0-11.044-8.954-19.998-19.998-19.998z" fill="#ff5d7d"/><path d="m256.001 342.003h-200v144c0 8.8 7.2 16 16 16h184zm-128.89 60.002h57.78c11.044 0 19.998 8.953 19.998 19.998 0 11.044-8.954 19.998-19.998 19.998-25.06 0-32.72 0-57.78 0-11.044 0-19.998-8.954-19.998-19.998s8.954-19.998 19.998-19.998z" fill="#e3eaef"/><path d="m184.892 402.005c-25.06 0-32.72 0-57.78 0-11.044 0-19.998 8.953-19.998 19.998 0 11.044 8.953 19.998 19.998 19.998h57.78c11.044 0 19.998-8.954 19.998-19.998-.001-11.044-8.954-19.998-19.998-19.998z" fill="#5cd0b3"/><path d="m256.001 342.003v160h184c8.8 0 16-7.2 16-16v-144z" fill="#e3eaef"/><path d="m256.001 342.003h200v-144c0-8.8-7.2-16-16-16h-114.604c-17.983 17.336-42.444 27.998-69.396 27.998z" fill="#e3eaef"/><path d="m357.934 459.435 46.583-46.583c7.81-7.809 7.81-20.472 0-28.281-7.809-7.809-20.472-7.809-28.281 0l-32.443 32.443-8.026-8.026c-7.809-7.809-20.472-7.809-28.281 0s-7.809 20.472 0 28.281l22.167 22.167c7.809 7.809 20.471 7.809 28.281-.001z" fill="#cbe558"/></g><g><path d="m369.165 377.499-25.372 25.371-.954-.954c-11.167-11.637-31.257-11.637-42.424 0-11.696 11.696-11.696 30.727 0 42.423l22.166 22.166c11.166 11.638 31.258 11.637 42.424 0l46.584-46.583c11.638-11.166 11.637-31.258 0-42.424-11.698-11.694-30.727-11.694-42.424.001zm28.281 28.282-46.584 46.583c-3.898 3.898-10.24 3.898-14.139 0l-22.166-22.166c-3.898-3.898-3.898-10.24 0-14.139 3.72-3.879 10.419-3.879 14.139 0l8.025 8.025c3.906 3.906 10.236 3.905 14.143 0l32.443-32.442c3.72-3.879 10.419-3.879 14.139 0 3.879 3.72 3.879 10.419 0 14.139z"/><path d="m440.002 172.003h-93.181c49.817-71.577-2.968-172.512-90.821-172.001-87.845-.514-140.642 100.441-90.818 172.001h-93.181c-14.336 0-26 11.663-26 26v288c0 14.337 11.664 26 26 26h368c14.337 0 26-11.663 26-26v-288c.001-14.337-11.662-26-25.999-26zm-184-152.002c49.626 0 90 40.374 90 90-4.944 119.397-175.074 119.362-180-.001 0-49.625 40.374-89.999 90-89.999zm-190 178.002c0-3.252 2.748-6 6-6h110.757c17.13 15.317 39.071 25.359 63.244 27.547v112.453h-180v-134zm5.999 294c-3.252 0-6-2.748-6-6v-134h180v140zm368.001 0h-174v-140h45c13.268-.529 13.258-19.476 0-20h-45v-112.453c24.173-2.188 46.114-12.23 63.244-27.547h110.756c3.252 0 6 2.748 6 6v134h-45c-13.268.529-13.258 19.476 0 20h45v134c0 3.252-2.748 6-6 6z"/><path d="m185.98 232.025c-2.751-38.347-57.22-38.318-59.957 0-38.346 2.752-38.317 57.22 0 59.957 2.751 38.346 57.22 38.317 59.957 0 38.346-2.752 38.317-57.22 0-59.957zm-1.088 39.976h-8.893c-5.523 0-10 4.478-10 10v8.892c-.551 13.267-19.449 13.257-19.996 0v-8.892c0-5.522-4.477-10-10-10h-8.892c-13.267-.551-13.257-19.45 0-19.996h8.892c5.523 0 10-4.478 10-10v-8.893c.551-13.267 19.45-13.257 19.996 0v8.893c0 5.522 4.477 10 10 10h8.893c13.266.551 13.256 19.45 0 19.996z"/><path d="m184.892 392.005h-57.78c-39.806 1.652-39.776 58.358 0 59.996h57.78c39.805-1.652 39.775-58.358 0-59.996zm0 39.996h-57.78c-13.267-.551-13.257-19.45 0-19.996h57.78c13.266.551 13.256 19.45 0 19.996z"/><path d="m196.008 125.001c4.364 0 8.292-1.864 11.032-4.839 1.299 6.265 3.773 12.106 7.181 17.278-4.271-.181-8.59 1.455-11.704 4.852-5.598 6.106-5.186 15.595.921 21.193 6.091 5.586 15.583 5.197 21.193-.922l.005-.006c2.796-3.05 4.092-6.944 3.928-10.775 5.173 3.408 11.013 5.882 17.278 7.18-9.955 9.071-3.488 26.062 10.159 26.038 8.284 0 15-6.716 15-15v-.007c0-4.364-1.864-8.291-4.839-11.031 6.265-1.299 12.105-3.773 17.278-7.181-.155 3.599.977 7.264 3.464 10.249 5.325 6.39 14.798 7.202 21.126 1.921 6.364-5.304 7.225-14.762 1.921-21.126l-.005-.006c-3.112-3.735-7.654-5.573-12.163-5.382 3.408-5.173 5.882-11.013 7.18-17.278 9.071 9.955 26.063 3.49 26.039-10.158 0-8.284-6.716-15-15-15h-.008c-4.364 0-8.291 1.864-11.031 4.838-1.298-6.265-3.772-12.105-7.18-17.277 4.537.185 9.051-1.653 12.169-5.386 5.304-6.364 4.443-15.822-1.921-21.126-6.364-5.302-15.821-4.443-21.126 1.921l-.005.006c-2.486 2.983-3.617 6.645-3.462 10.24-5.172-3.408-11.012-5.881-17.277-7.179 9.954-9.072 3.488-26.062-10.159-26.038-8.284 0-15 6.716-15 15v.008c0 4.364 1.863 8.291 4.838 11.031-6.265 1.299-12.105 3.773-17.278 7.181.164-3.834-1.133-7.731-3.93-10.782-5.599-6.107-15.085-6.518-21.193-.922-6.107 5.599-6.52 15.087-.921 21.193l.005.006c3.119 3.394 7.398 5.026 11.696 4.848-3.408 5.173-5.882 11.014-7.18 17.28-9.071-9.955-26.063-3.489-26.038 10.158 0 8.284 6.716 15 15 15zm59.994-45.001c16.542 0 30 13.458 30 30-1.648 39.8-58.358 39.789-60 0 0-16.542 13.458-30 30-30z"/><path d="m356.006 352.003c13.268-.529 13.258-19.476 0-20h-.008c-13.268.531-13.25 19.478.008 20z"/></g></g></svg>