<svg id="Layer_1" enable-background="new 0 0 511.225 511.225" height="512" viewBox="0 0 511.225 511.225" width="512" xmlns="http://www.w3.org/2000/svg"><g><g clip-rule="evenodd" fill-rule="evenodd"><path d="m305.612 203.765c24.75 0 45-21.753 45-48.339v-8.057c0-58.139-190-58.139-190 0v8.057c0 26.586 20.25 48.339 45 48.339 24.904 0 26.053-16.263 50-16.263s25.097 16.263 50 16.263z" fill="#cff5fd"/><path d="m305.612 203.765c-24.903 0-26.054-16.263-50-16.263-23.947 0-25.096 16.263-50 16.263-24.75 0-45-21.753-45-48.339v34.998c0 52.25 42.75 95 95 95s95-42.75 95-95v-34.998c0 26.586-20.25 48.339-45 48.339z" fill="#5cd0b3"/><path d="m255.612 285.423c-52.25 0-95-42.75-95-95v-34.998-8.057c0-58.139 190-58.139 190 0v8.057 34.998c0 52.25-42.75 95-95 95zm210.001 215.802v-98.553c0-62.01-50.422-112.806-112.291-113.433 26.053-25.462 42.29-60.931 42.29-100.013v-40.001c0-77-63-140-140.001-140-77 0-140 63-140 140v40.001c0 39.083 16.237 74.551 42.29 100.013-61.868.628-112.29 51.424-112.29 113.433v98.553h90.003 119.996 120z" fill="#e3eaef"/></g><g><path d="m373.954 281.172c20.539-26.237 31.658-58.228 31.658-91.947v-40c-8.263-199.043-291.811-198.891-300 0v40c0 33.72 11.119 65.711 31.658 91.947-57.634 10.378-101.657 61.119-101.657 121.5v98.553c0 5.523 4.478 10 10 10h420c5.522 0 10-4.477 10-10v-98.553c0-60.382-44.024-111.123-101.659-121.5zm-118.341-261.946c70.412 0 127.928 56.268 129.945 126.2h-24.994c-.682-13.406-8.424-24.032-20.549-32.075l3.945-11.333c1.815-5.216-.941-10.916-6.157-12.732-5.22-1.816-10.917.941-12.731 6.157l-3.093 8.884c-4.761-1.802-9.83-3.366-15.127-4.698l1.396-9.035c.844-5.458-2.897-10.566-8.355-11.41-5.447-.843-10.566 2.897-11.41 8.356l-1.286 8.325c-7.039-.97-14.282-1.598-21.582-1.897v-8.842c-.529-13.268-19.476-13.258-20 0v8.842c-7.3.299-14.543.927-21.582 1.897l-1.287-8.326c-.844-5.458-5.964-9.195-11.41-8.355-5.458.844-9.199 5.953-8.355 11.411l1.396 9.034c-5.297 1.332-10.365 2.895-15.127 4.698l-3.092-8.884c-1.814-5.215-7.513-7.973-12.731-6.157-5.216 1.815-7.973 7.515-6.157 12.731l3.944 11.334c-12.125 8.043-19.867 18.669-20.549 32.075h-24.994c2.014-69.932 59.53-126.2 129.942-126.2zm0 256.197c-43.303 0-79.147-32.55-84.35-74.467 19.32 16.876 47.489 16.121 65.263 2.995 5.888-3.744 10.142-6.45 19.087-6.45s13.199 2.706 19.087 6.45c17.718 13.129 46.029 13.859 65.263-2.995-5.203 41.918-41.047 74.467-84.35 74.467zm-61.536-151.498c31.284-13.402 91.787-13.402 123.07.001 10.704 4.367 23.465 11.979 23.465 23.443v8.057c.101 30.627-31.781 49.071-55.18 31.65-17.669-12.785-42.02-12.754-59.641 0-23.409 17.428-55.285-1.039-55.18-31.65v-8.057c.002-11.464 12.762-19.077 23.466-23.444zm-138.464 278.747c0-56.46 45.933-102.86 102.392-103.434 4.047-.041 7.67-2.517 9.178-6.273 1.509-3.755.604-8.05-2.29-10.878-25.329-24.754-39.279-57.733-39.279-92.861v-23.8h25v24.998c0 54.525 41.775 99.476 95 104.527v23.892c-13.409-1.03-26.487-4.136-39.001-9.275-5.113-2.099-10.951.343-13.05 5.452-2.098 5.109.344 10.951 5.453 13.049 14.937 6.133 30.57 9.762 46.598 10.826v152.33h-99.997v-36.5c-.528-13.268-19.476-13.258-20 0v36.5h-70.004zm400 88.553h-70.003v-36.5c-.529-13.268-19.476-13.258-20 0v36.5h-99.997v-152.33c16.028-1.064 31.661-4.692 46.598-10.826 5.109-2.098 7.551-7.94 5.453-13.049-2.099-5.109-7.938-7.55-13.05-5.452-12.513 5.138-25.592 8.245-39.001 9.274v-23.892c53.225-5.052 95-50.002 95-104.527v-24.998h25v23.8c0 35.127-13.95 68.106-39.279 92.861-2.895 2.829-3.799 7.123-2.29 10.878 1.508 3.756 5.131 6.232 9.178 6.273 56.459.573 102.392 46.973 102.392 103.434v88.554z"/><path d="m135.619 419.726c13.268-.529 13.258-19.476 0-20h-.007c-13.267.529-13.25 19.478.007 20z"/></g></g></svg>