<svg id="Layer_1" enable-background="new 0 0 512.013 512.013" height="512" viewBox="0 0 512.013 512.013" width="512" xmlns="http://www.w3.org/2000/svg"><g><g clip-rule="evenodd" fill-rule="evenodd"><path d="m181.831 227.89c13.249-13.249 33.119-4.361 42.339-17.794 17.907-26.089 121.091-.041 177.45 20.488 14.098-16.985 10.859-26.592-12.947-39.007-16.102-8.397-44.311-24.901-52.584-41.287-42.307-83.783-146.229-117.336-230.94-74.561-84.711 42.774-119.406 146.321-77.1 230.105 14.619 28.952 36.598 51.906 62.595 67.783 41.269 25.203 49.034 44.315 49.034 81.327h67.862c2.727-59.188 4.476-113.123-28.84-173.53-12.236-22.186-6.177-44.216 3.131-53.524z" fill="#ffdcd5"/><path d="m224.17 210.096c-9.22 13.433-29.09 4.545-42.339 17.794-9.308 9.308-15.366 31.338-3.131 53.523 33.316 60.407 31.567 114.342 28.84 173.53h60.223c-1.818-120.778 87.723-118.756 134.714-149.253l-25.632-50.761c.14-.125.279-.249.418-.374 10.65-9.531 18.833-17.317 24.355-23.971-56.357-20.529-159.541-46.577-177.448-20.488z" fill="#ff9eb1"/><path d="m402.478 305.69c-46.991 30.497-136.532 28.475-134.714 149.253h60.458c0-53.705-1.113-59.1 53.246-86.548 23.084-11.657 32.538-39.874 21.01-62.705z" fill="#ffdcd5"/><path d="m439.114 254.555c0 11 9 20 20 20h42.899v-40h-42.899c-11 0-20 8.999-20 20z" fill="#ff764e"/></g><g><path d="m502.013 224.554h-42.899c-13.037 0-24.159 8.36-28.286 20.001h-28.315c27.039-26.542 21.639-46.58-9.216-61.844-25.19-13.138-43.24-26.943-48.282-36.929-21.675-42.924-59.114-74.797-105.422-89.749-46.269-14.936-95.615-11.113-138.952 10.768-87.636 41.903-127.147 157.637-81.517 243.541 14.954 29.618 37.883 54.449 66.308 71.808 37.852 23.117 44.247 38.451 44.247 72.793 0 5.522 4.477 10 10 10h188.543c5.523 0 10-4.478 10-10l-.001-3.173c-.01-23.689-.015-36.738 5.223-45.505 5.403-9.042 18.562-16.842 42.531-28.944 28.065-14.172 39.473-48.327 25.43-76.139l-18.495-36.627h37.918c4.127 11.64 15.249 19.999 28.286 19.999h42.899c5.523 0 10-4.478 10-10v-40c0-5.522-4.477-10-10-10zm-406.156 140.528c-106.992-64.242-98.191-225.109 13.801-280.427 80.003-40.397 177.576-8.931 217.503 70.143 9.052 17.927 35.932 34.717 56.887 45.646 13.872 7.233 15.77 11.22 15.942 12.598.179 1.434-.58 3.38-1.979 5.638-32.67-11.419-69.102-20.97-98.64-25.809-45.673-7.486-72.97-3.701-83.447 11.565-2.001 2.916-5.386 3.661-13.208 4.779-8.502 1.216-19.084 2.729-27.958 11.603-12.779 12.778-18.81 40.051-4.817 65.423 31.129 56.442 30.264 108.448 28.04 158.701h-48.519c-1.524-32.814-11.927-54.406-53.605-79.86zm293.458-63.273c-8.769 4.652-18.836 8.671-29.372 12.877-6.697 2.674-13.623 5.438-20.532 8.494-5.051 2.234-7.334 8.14-5.101 13.19 2.237 5.102 8.261 7.317 13.19 5.101 6.575-2.908 13.327-5.604 19.857-8.211 10.399-4.151 20.368-8.131 29.555-12.853 2.613 15.439-5.077 31.549-19.953 39.06-27.995 14.136-42.719 23.209-50.685 36.538-7.35 12.3-8.002 26.586-8.052 48.938h-40.395c.564-19.224 3.735-35.406 9.638-49.279 2.163-5.082-.205-10.954-5.286-13.117-5.083-2.16-10.955.204-13.117 5.287-6.956 16.347-10.653 35.095-11.243 57.109h-39.824c3.478-58.971-1.104-116.905-30.54-168.359-9.851-17.861-5.085-35.092 1.446-41.622 4.161-4.161 9.946-4.988 16.646-5.946 8.775-1.254 19.697-2.815 26.866-13.26 3.868-5.636 22.877-9.838 63.724-3.147 29.82 4.886 62.723 14.071 87.601 22.347-3.614 3.517-7.268 6.864-10.304 9.601h-128.456c-2.747-3.069-6.738-5-11.18-5h-22.245c-19.902.793-19.887 29.215 0 30h22.245c4.442 0 8.433-1.931 11.18-5h125.526zm102.698-37.255h-32.899c-13.27-.551-13.259-19.454 0-20h32.899z"/><path d="m304.84 365.431c13.268-.529 13.258-19.476 0-20h-.007c-13.269.53-13.251 19.478.007 20z"/></g></g></svg>