<svg id="Layer_1" enable-background="new 0 0 512.001 512.001" height="512" viewBox="0 0 512.001 512.001" width="512" xmlns="http://www.w3.org/2000/svg"><g><g clip-rule="evenodd" fill-rule="evenodd"><path d="m50.998 130.999h50 10v-30.001c0-11-9-20-20-20h-30c-11 0-20 9-20 20v30.001z" fill="#ff764e"/><path d="m50.998 130.999h50v56.5h-50z" fill="#cff5fd"/><path d="m100.999 187.499h-50v138.5c0 13.75 11.25 25 25 25s25-11.25 25-25z" fill="#ff5d7d"/><path d="m171 130.999h50 10v-30.001c0-11-9-20-20-20h-30c-11 0-20 9-20 20v30.001z" fill="#ff764e"/><path d="m171 130.999h50v56.5h-50z" fill="#cff5fd"/><path d="m221 187.499h-50v138.5c0 13.75 11.25 25 25 25s25-11.25 25-25z" fill="#ff5d7d"/><path d="m291.002 130.999h50 10v-30.001c0-11-9-20-20-20h-30c-11 0-20 9-20 20v30.001z" fill="#ff764e"/><path d="m291.002 130.999h50v56.5h-50z" fill="#cff5fd"/><path d="m341.002 187.499h-50v138.5c0 13.75 11.25 25 25 25s25-11.25 25-25z" fill="#ff5d7d"/><path d="m411.003 130.999h50 10v-30.001c0-11-9-20-20-20h-30c-11 0-20 9-20 20v30.001z" fill="#ff764e"/><path d="m411.003 130.999h50v56.5h-50z" fill="#cff5fd"/><path d="m461.004 187.499h-50v138.5c0 13.75 11.25 25 25 25s25-11.25 25-25z" fill="#ff5d7d"/><g fill="#e3eaef"><path d="m461.004 191.002v40h20.998c11 0 20-9 20-20s-9-20-20-20z"/><path d="m341.002 191.002h70.001v40h-70.001z"/><path d="m221 191.002h70.001v40h-70.001z"/><path d="m100.999 191.002h70.001v40h-70.001z"/><path d="m50.998 231.002v-40h-20.998c-11 0-20 9-20 20s9 20 20 20z"/></g><path d="m100.999 231.002v94.997c0 13.75-11.25 25-25 25s-25-11.25-25-25v-94.997h-20.999c-11 0-20-9-20-20v200c0-11 9-20 20-20h452.002c11 0 20 9 20 20v-200c0 11-9 20-20 20h-20.998v94.997c0 13.75-11.25 25-25 25s-25-11.25-25-25v-94.997h-70.001v94.997c0 13.75-11.25 25-25 25s-25-11.25-25-25v-94.997h-70.003v94.997c0 13.75-11.25 25-25 25s-25-11.25-25-25v-94.997z" fill="#a7bdcd"/><path d="m482.002 391.002h-452.002c-11 0-20 9-20 20s9 20 20 20h452.002c11 0 20-9 20-20s-9-20-20-20z" fill="#e3eaef"/></g><g><path d="m482.002 181.002h-10.999v-40.002c5.523 0 10-4.477 10-10v-30.001c0-16.542-13.458-29.999-30-29.999h-30c-16.542 0-30 13.458-30 29.999v30.001c0 5.523 4.477 10 10 10v40.002h-50.001v-40.002c5.523 0 10-4.477 10-10v-30.001c0-16.542-13.458-29.999-30-29.999h-30c-16.542 0-30 13.458-30 29.999v30.001c0 5.523 4.477 10 10 10v40.002h-50.002v-40.002c5.523 0 10-4.477 10-10v-30.001c0-16.542-13.458-29.999-30-29.999h-30c-16.542 0-30 13.458-30 29.999v30.001c0 5.523 4.477 10 10 10v40.002h-50.001v-40.002c5.523 0 10-4.477 10-10v-30.001c0-16.542-13.458-29.999-30-29.999h-30c-16.542 0-30 13.458-30 29.999v30.001c0 5.523 4.477 10 10 10v40.002h-10.999c-16.542 0-30 13.458-30 30v200.001c0 16.542 13.458 30 30 30h452.002c16.542 0 29.999-13.458 30-30v-200.001c-.001-16.542-13.458-30-30-30zm0 20c13.268.551 13.259 19.454 0 20h-10.999v-20zm-60.999.001h30v124.997c-.826 19.904-29.181 19.889-30 0zm-10-100.005c0-5.513 4.486-9.999 10-9.999h30c5.514 0 10 4.486 10 9.999v20.001h-50zm40 40.001v40.003h-30v-40.003zm-50 60.003v20h-50.001v-20zm-100.002.001h30v124.997c-.826 19.905-29.182 19.889-30 0zm30.001-20h-30v-40.003h30zm-40-80.005c0-5.513 4.486-9.999 10-9.999h30c5.514 0 10 4.486 10 9.999v20.001h-50zm-10.001 100.004v20h-50.001v-20zm-100.001.001h30v124.997c-.826 19.904-29.182 19.889-30 0zm-10-100.005c0-5.513 4.486-9.999 10-9.999h30c5.514 0 10 4.486 10 9.999v20.001h-50zm40 40.001v40.003h-30v-40.003zm-50 60.003v20h-50.001v-20zm-100.001.001h30v124.997c-.826 19.904-29.181 19.889-30 0zm-10-100.005c0-5.513 4.486-9.999 10-9.999h30c5.514 0 10 4.486 10 9.999v20.001h-50zm40 40.001v40.003h-30v-40.003zm-60.999 60.003h10.999v20h-10.999c-13.27-.551-13.259-19.455 0-20zm452.002 220h-452.002c-13.269-.551-13.26-19.454 0-20h180.998c13.268-.528 13.258-19.477 0-20h-180.998c-3.505 0-6.871.604-10 1.714v-143.428c3.129 1.109 6.495 1.714 10 1.714h10.999v84.998c1.928 46.444 68.09 46.408 70 0v-84.998h50.001v84.998c1.928 46.444 68.09 46.408 70 0v-84.998h50.001v84.998c1.928 46.443 68.09 46.408 70 0v-84.998h50.001v84.998c1.928 46.444 68.09 46.408 70 0v-84.998h10.999c3.505 0 6.871-.604 10-1.714v143.428c-3.129-1.109-6.495-1.714-10-1.714h-181.003c-13.268.528-13.258 19.477 0 20h181.004c13.269.551 13.259 19.454 0 20z"/><path d="m256.001 381.002h-.007c-5.523 0-9.996 4.477-9.996 10 .528 13.263 19.479 13.263 20.003 0 0-5.523-4.477-10-10-10z"/></g></g></svg>