<svg id="Layer_1" enable-background="new 0 0 512.408 512.408" height="512" viewBox="0 0 512.408 512.408" width="512" xmlns="http://www.w3.org/2000/svg"><g><g clip-rule="evenodd" fill-rule="evenodd"><ellipse cx="256.05" cy="256.047" fill="#cff5fd" rx="206" ry="206" transform="matrix(.707 -.707 .707 .707 -106.057 256.049)"/><path d="m50.05 256.047c0-113.77 92.229-206 206-206s206 92.229 206 206c0 20.356-3.017 40.576-8.933 60.005 12.704 7.56 23.59 17.855 31.847 30.073 11.267-28.632 17.086-59.184 17.086-90.078 0-135.862-110.138-246-246-246s-246 110.138-246 246 110.138 246 246 246c30.884 0 61.437-5.815 90.078-17.086-12.218-8.257-22.514-19.143-30.074-31.848-19.404 5.908-39.622 8.933-60.004 8.933-113.771.001-206-92.229-206-205.999z" fill="#6d91ac"/><ellipse cx="281.795" cy="195.616" fill="#cbe558" rx="50" ry="50" transform="matrix(.707 -.707 .707 .707 -55.786 256.554)"/><ellipse cx="185.795" cy="346.117" fill="#cbe558" rx="30" ry="30" transform="matrix(.383 -.924 .924 .383 -205.076 385.316)"/><path d="m402.05 302.048c-55.228 0-100 44.772-100 100 0 18.656 5.109 36.119 14.004 51.066 7.56 12.704 17.855 23.591 30.074 31.848 15.962 10.787 35.207 17.086 55.922 17.086 55.228 0 100-44.772 100-100 0-20.716-6.299-39.96-17.086-55.923-8.257-12.218-19.143-22.513-31.847-30.073-14.947-8.895-32.411-14.004-51.067-14.004z" fill="#fff"/><path d="m360.41 360.407c-7.809 7.81-7.809 20.472 0 28.281l13.359 13.359-13.359 13.359c-7.81 7.809-7.81 20.472 0 28.281 7.809 7.809 20.472 7.809 28.281 0l13.359-13.359 13.359 13.359c7.809 7.809 20.472 7.809 28.281 0 7.81-7.81 7.81-20.472 0-28.281l-13.359-13.359 13.359-13.359c7.809-7.81 7.809-20.472 0-28.281s-20.472-7.809-28.281 0l-13.359 13.359-13.359-13.359c-7.809-7.809-20.472-7.809-28.281 0z" fill="#ff5d7d"/><path d="m360.41 388.689c-7.809-7.81-7.809-20.472 0-28.281s20.472-7.809 28.281 0l13.359 13.359 13.359-13.359c7.809-7.809 20.472-7.809 28.281 0s7.809 20.472 0 28.281l-13.359 13.359 13.359 13.359c7.81 7.81 7.81 20.472 0 28.281-7.809 7.809-20.472 7.809-28.281 0l-13.359-13.359-13.359 13.359c-7.809 7.809-20.472 7.809-28.281 0-7.81-7.809-7.81-20.472 0-28.281l13.359-13.359zm-58.36 13.359c0 55.228 44.772 100 100 100s100-44.772 100-100-44.772-100-100-100-100 44.772-100 100z" fill="#fff"/></g><g><path d="m496.087 345.026c62.729-164.951-63.492-346.61-240.039-344.977-137.597-2.838-258.848 118.391-255.996 256-1.623 176.537 180.025 302.778 344.978 240.036 98.887 58.404 209.444-52.245 151.057-151.059zm-240.038 147.021c-313.082-12.964-313-459.08.002-472 156.162-2.514 273.819 157.794 225.398 305.945-5.071-5.292-10.664-10.079-16.695-14.278 49.627-190.38-158.255-342.442-324.654-237.932-4.657 2.969-6.026 9.15-3.058 13.808 2.97 4.658 9.15 6.026 13.808 3.058 147.915-93.853 336.258 40.334 295.851 210.874-91.655-40.555-185.724 53.571-145.178 145.178-170.614 40.405-304.698-148.006-210.875-295.847 2.967-4.656 1.598-10.838-3.059-13.807-4.659-2.971-10.84-1.599-13.808 3.058-104.538 166.504 47.664 374.269 237.935 324.647 4.2 6.032 8.987 11.625 14.279 16.696-22.646 7.039-46.115 10.6-69.946 10.6zm146.001.001c-49.626 0-90-40.374-90-90 4.944-119.397 175.074-119.362 180 .001 0 49.625-40.374 89.999-90 89.999z"/><path d="m196.801 215.616c7.403 0 13.866-4.022 17.324-10h8.503c1.534 9.104 5.125 17.518 10.277 24.747l-2.496 2.496c-6.672-1.782-14.087-.055-19.321 5.179l-.005.005c-7.81 7.811-7.808 20.471.003 28.282 7.811 7.812 20.477 7.808 28.287-.002 5.234-5.234 6.96-12.649 5.178-19.321l2.496-2.496c7.228 5.152 15.643 8.743 24.746 10.277v8.503c-5.978 3.458-10 9.921-10 17.324v.007c0 11.045 8.954 19.996 20 19.996 20.545-.203 27.461-27.12 10-37.328v-8.503c9.104-1.534 17.519-5.125 24.747-10.277l2.496 2.496c-1.781 6.672-.055 14.086 5.178 19.321l.005.005c7.811 7.811 20.473 7.808 28.282-.002 7.811-7.811 7.808-20.476-.002-28.287-5.234-5.234-12.649-6.961-19.321-5.179l-2.496-2.496c5.152-7.228 8.743-15.643 10.277-24.746h8.504c3.458 5.978 9.921 10 17.324 10h.007c11.046 0 19.997-8.954 19.997-20-.203-20.545-27.12-27.461-37.328-10h-8.504c-1.534-9.104-5.125-17.518-10.277-24.747l2.495-2.495c7.127 1.879 14.776-.176 19.978-5.868l.005-.005c7.43-8.173 6.825-20.82-1.348-28.25-8.173-7.431-20.825-6.825-28.255 1.348-4.75 5.225-6.217 12.28-4.522 18.631l-2.497 2.497c-7.229-5.152-15.643-8.743-24.747-10.277v-8.503c5.978-3.458 10-9.921 10-17.324v-.008c0-11.045-8.954-19.996-20-19.996-20.545.203-27.461 27.12-10 37.328v8.503c-9.104 1.534-17.518 5.125-24.746 10.277l-2.497-2.497c1.695-6.351.228-13.406-4.522-18.631l-.005-.005c-7.43-8.172-20.076-8.773-28.25-1.342-8.173 7.43-8.772 20.082-1.343 28.255 5.204 5.693 12.85 7.747 19.978 5.868l2.495 2.495c-5.153 7.229-8.744 15.643-10.277 24.747h-8.503c-3.458-5.978-9.921-10-17.324-10h-.008c-26.532 1.056-26.503 38.954.012 39.998zm84.994-60c22.056 0 40 17.944 40 40-2.197 53.065-77.811 53.05-80 0 0-22.056 17.944-40 40-40z"/><path d="m150.441 324.904.904.904c-1.883 3.181-3.337 6.644-4.284 10.309h-1.266c-13.268.529-13.258 19.476 0 20h1.266c.947 3.665 2.401 7.128 4.283 10.309l-.904.904c-3.905 3.905-3.905 10.237 0 14.143 3.906 3.905 10.237 3.905 14.143 0l.904-.904c3.181 1.882 6.644 3.337 10.308 4.283v1.265c.528 13.268 19.476 13.258 20 0v-1.265c3.665-.947 7.127-2.401 10.308-4.283l.904.904c3.906 3.905 10.237 3.905 14.143 0 3.905-3.905 3.905-10.237 0-14.143l-.904-.904c1.882-3.181 3.337-6.644 4.283-10.309h1.266c13.268-.529 13.258-19.476 0-20h-1.266c-.947-3.665-2.401-7.128-4.284-10.309l.904-.904c3.906-3.905 3.906-10.237.001-14.142-3.903-3.905-10.236-3.906-14.142 0l-.905.904c-3.181-1.883-6.644-3.337-10.309-4.284v-1.265c-.528-13.268-19.476-13.258-20 0v1.265c-3.665.947-7.128 2.401-10.309 4.284l-.905-.904c-3.904-3.905-10.237-3.905-14.142 0-3.903 3.905-3.903 10.237.003 14.142zm35.355 1.212c11.028 0 20 8.972 20 20-1.099 26.533-38.905 26.525-40 0 0-11.027 8.971-20 20-20z"/><path d="m135.804 258.116c19.902-.793 19.887-29.215 0-30h-.008c-19.902.794-19.878 29.216.008 30z"/><path d="m103.656 117.785c4.076 3.707 10.405 3.42 14.129-.675 8.534-10.172-5.493-22.912-14.799-13.453l-.005.005c-3.715 4.086-3.411 10.408.675 14.123z"/><path d="m459.548 374.548c.109-26.519-32.5-40.009-51.21-21.212l-6.288 6.289-6.288-6.289c-11.697-11.695-30.727-11.695-42.424 0-11.696 11.696-11.696 30.728 0 42.424l6.288 6.288-6.288 6.288c-11.696 11.696-11.696 30.728 0 42.424 11.697 11.696 30.727 11.696 42.424 0l6.288-6.289 6.288 6.288c11.165 11.638 31.258 11.637 42.424 0 11.694-11.696 11.694-30.727 0-42.423l-6.288-6.288 6.288-6.288c5.666-5.666 8.786-13.199 8.786-21.212zm-36.288 34.571 13.359 13.358c3.897 3.898 3.897 10.241 0 14.139-3.72 3.879-10.419 3.878-14.139 0l-13.359-13.359c-3.906-3.905-10.237-3.905-14.143 0l-13.359 13.359c-3.898 3.898-10.24 3.898-14.139 0-3.898-3.898-3.898-10.241 0-14.139l13.359-13.359c3.905-3.905 3.905-10.237 0-14.143l-13.359-13.359c-3.898-3.898-3.898-10.241 0-14.139 3.897-3.898 10.241-3.898 14.139 0l13.359 13.359c3.906 3.905 10.236 3.905 14.143 0l13.359-13.359c3.898-3.898 10.24-3.898 14.139 0 3.879 3.721 3.879 10.418 0 14.139l-13.359 13.359c-3.873 3.726-3.873 10.42 0 14.144z"/></g></g></svg>