<svg id="Layer_1" enable-background="new 0 0 512.005 512.005" height="512" viewBox="0 0 512.005 512.005" width="512" xmlns="http://www.w3.org/2000/svg"><g><g clip-rule="evenodd" fill-rule="evenodd"><g><path d="m325.506 271.385-28.284-28.284-14.142-14.142c-7.778-7.778-20.506-7.778-28.284 0l-84.853 84.853c-7.779 7.779-7.778 20.506 0 28.285l14.142 14.142 28.284 28.284z" fill="#fff"/><path d="m184.085 356.238-14.142-14.142c-7.778-7.778-7.779-20.506 0-28.285l-114.125 114.126c-7.721 7.721-7.723 20.561 0 28.284 7.722 7.722 20.562 7.723 28.284 0z" fill="#ff5d7d"/><path d="m283.08 228.959 14.142 14.142 68.14-68.14h-56.569l-53.998 53.998c7.779-7.778 20.507-7.778 28.285 0z" fill="#ff5d7d"/><path d="m365.362 174.961-68.14 68.14 28.284 28.284 128.268-128.268-84.852-84.853-341.388 341.388c-23.335 23.335-23.335 61.518 0 84.853s61.519 23.334 84.852 0l99.983-99.983-28.284-28.284-99.983 99.983c-7.722 7.723-20.562 7.722-28.284 0-7.723-7.723-7.721-20.563 0-28.284l114.125-114.125 84.853-84.853 53.998-53.998z" fill="#cff5fd"/><path d="m368.922 58.265 84.853 84.853 14.142 14.142 28.285-28.284c7.778-7.778 7.778-20.506 0-28.284l-84.853-84.853c-7.779-7.778-20.506-7.778-28.284 0l-28.284 28.284z" fill="#ff764e"/></g><ellipse cx="120.033" cy="120.004" fill="#cbe558" rx="40" ry="40" transform="matrix(.707 -.707 .707 .707 -49.699 120.025)"/><path d="m160.033 120.004c0 22.091-17.908 40-40 40s-40-17.908-40-40 17.908-40 40-40 40 17.908 40 40zm-40 110c21.047 0 40.71-5.914 57.426-16.167 11.777 3.16 23.554 6.319 35.333 9.476 6.286 1.774 12.307-3.978 10.584-10.442-3.168-11.823-6.337-23.635-9.506-35.447 10.25-16.714 16.163-36.376 16.163-57.42 0-60.751-49.249-110-110-110s-110 49.249-110 110c0 60.751 49.249 110 110 110z" fill="#fff"/></g><g><path d="m503.272 93.62-84.853-84.853c-11.129-11.606-31.299-11.606-42.427 0l-28.284 28.284c-3.905 3.905-3.905 10.237 0 14.143l7.071 7.071-128.144 128.144c-.555-2.07-2.02-7.53-2.02-7.53 45.21-78.573-13.807-179.674-104.583-178.874-66.166-.001-119.998 53.83-119.998 119.999-.789 90.776 100.305 149.803 178.881 104.577 2.51.673 5.019 1.346 7.529 2.02l-45.702 45.702c-3.905 3.905-3.905 10.237 0 14.143 3.906 3.905 10.237 3.905 14.143 0l53.864-53.863 1.41.378c6.374 1.768 13.254-.026 17.984-4.689 4.805-4.736 6.636-11.456 4.894-17.987-.14-.523-.28-1.046-.421-1.57l136.306-136.308 70.71 70.71-114.126 114.125-14.141-14.142 61.069-61.068c6.279-6.181 1.736-17.142-7.071-17.071h-56.569c-2.652 0-5.195 1.054-7.071 2.929l-53.957 53.958c-.013.013-.027.026-.04.04l-84.853 84.853-114.126 114.124c-11.696 11.697-11.696 30.729 0 42.427 5.849 5.849 13.529 8.773 21.213 8.772 7.682 0 15.365-2.925 21.214-8.772l92.911-92.912 14.141 14.142-92.911 92.911c-9.396 9.396-21.952 14.572-35.355 14.572-13.402 0-25.958-5.175-35.354-14.572-19.302-18.495-19.301-52.215 0-70.71l56.638-56.639c3.905-3.905 3.905-10.237 0-14.142-3.906-3.905-10.236-3.905-14.143 0l-56.638 56.638c-27.06 25.94-27.059 73.056 0 98.995 13.174 13.175 30.753 20.43 49.498 20.43 18.744 0 36.322-7.256 49.497-20.43l334.316-334.315 7.071 7.071c3.724 3.873 10.419 3.873 14.143 0l28.284-28.284c11.606-11.129 11.606-31.3 0-42.427zm-331.041 111.693c-65.418 40.888-152.875-8.064-152.197-85.31-.001-55.139 44.859-99.999 99.999-99.999 77.241-.669 126.196 86.773 85.312 152.192-1.436 2.34-1.846 5.167-1.134 7.819l1.439 5.367c2.473 9.217 4.946 18.436 7.415 27.651-11.006-2.95-22.011-5.902-33.016-8.855-2.652-.711-5.477-.3-7.818 1.135zm140.705-20.352h28.284l-43.998 43.997-7.071-7.071c-2.445-2.445-5.243-4.414-8.28-5.862zm-235.903 264.188c-3.834 3.833-10.311 3.833-14.143.001-3.833-3.833-3.833-10.31 0-14.142l94.12-94.121c1.448 3.037 3.417 5.835 5.862 8.28l7.071 7.071zm99.982-114.125c-3.848-3.684-3.848-10.459 0-14.142l84.833-84.834c.006-.006.013-.012.019-.019l.02-.02c3.687-3.829 10.446-3.82 14.122.02l35.354 35.355-98.994 98.995zm312.114-213.12-21.213 21.213-98.994-98.995 21.213-21.213c3.899-3.9 10.244-3.898 14.142 0l84.853 84.853c3.848 3.684 3.847 10.458-.001 14.142z"/><path d="m276.009 264.314c-3.906-3.905-10.236-3.905-14.143 0l-56.568 56.568c-3.905 3.905-3.905 10.237 0 14.143 3.906 3.905 10.237 3.905 14.143 0l56.568-56.568c3.905-3.906 3.905-10.238 0-14.143z"/><path d="m180.034 105.004h-.007c-4.364 0-8.291 1.864-11.031 4.839-1.298-6.266-3.773-12.106-7.181-17.279 3.867.161 7.724-1.135 10.782-3.93 6.106-5.598 6.52-15.086.922-21.193-5.6-6.107-15.088-6.52-21.193-.921l-.006.005c-3.396 3.113-5.03 7.428-4.849 11.696-5.172-3.408-11.013-5.882-17.278-7.18 9.955-9.071 3.489-26.063-10.159-26.038-8.284 0-15 6.716-15 15v.007c0 4.364 1.864 8.291 4.839 11.031-6.266 1.299-12.106 3.773-17.278 7.181.647-13.782-16.597-21.099-26.046-10.782-5.598 6.106-5.185 15.595.922 21.193l.006.005c3.057 2.794 6.909 4.088 10.775 3.928-3.408 5.173-5.882 11.014-7.18 17.279-9.071-9.956-26.063-3.49-26.038 10.158 0 8.284 6.716 15 15 15h.007c4.364 0 8.292-1.864 11.032-4.839 1.298 6.266 3.772 12.106 7.181 17.279-3.834-.165-7.731 1.132-10.783 3.93-6.106 5.598-6.52 15.086-.922 21.193 5.61 6.119 15.103 6.508 21.193.921l.006-.005c3.396-3.113 5.03-7.428 4.849-11.696 5.173 3.408 11.013 5.882 17.279 7.18-9.955 9.071-3.489 26.063 10.159 26.038 8.284 0 15-6.716 15-15v-.007c0-4.364-1.864-8.291-4.839-11.031 6.265-1.298 12.105-3.772 17.277-7.181-.18 4.271 1.456 8.589 4.852 11.703 6.092 5.587 15.582 5.197 21.193-.921 5.598-6.106 5.185-15.595-.922-21.193l-.006-.005c-3.05-2.796-6.943-4.092-10.774-3.928 3.408-5.173 5.882-11.013 7.18-17.278 9.071 9.954 26.062 3.488 26.038-10.159 0-8.284-6.716-15-15-15zm-60 45c-16.542 0-30-13.458-30-30 1.648-39.8 58.358-39.788 60 0 0 16.542-13.458 30-30 30z"/><path d="m115.993 321.196c2.413 0 4.835-.869 6.754-2.628l.006-.005c9.423-9.355-3.395-23.312-13.52-14.738-4.071 3.732-4.347 10.058-.614 14.129 1.971 2.151 4.667 3.242 7.374 3.242z"/></g></g></svg>