<svg id="Layer_1" enable-background="new 0 0 512.012 512.012" height="512" viewBox="0 0 512.012 512.012" width="512" xmlns="http://www.w3.org/2000/svg"><g><g clip-rule="evenodd" fill-rule="evenodd"><path d="m425.457 58.264 28.284 28.284 14.142 14.142c7.778 7.778 20.506 7.778 28.284 0s7.778-20.506 0-28.284l-56.569-56.568c-7.778-7.778-20.506-7.778-28.284 0s-7.778 20.506 0 28.284z" fill="#a7bdcd"/><path d="m378.718 77.624h71.327v40h-71.327z" fill="#e3eaef" transform="matrix(.707 -.707 .707 .707 52.34 321.606)"/><path d="m403.305 136.984-28.284-28.284-28.285-28.284c-7.778-7.778-20.506-7.778-28.284 0s-7.778 20.506 0 28.284l28.284 28.284 28.284 28.284 28.284 28.284c7.778 7.778 20.506 7.778 28.284 0s7.778-20.506 0-28.284z" fill="#a7bdcd"/><path d="m274.832 126.768h67.673v40h-67.673z" fill="#cff5fd" transform="matrix(.707 -.707 .707 .707 -13.374 261.249)"/><path d="m303.116 155.052h67.673v40h-67.673z" fill="#e3eaef" transform="matrix(.707 -.707 .707 .707 -25.09 289.533)"/><path d="m331.401 183.337h67.673v40h-67.673z" fill="#cff5fd" transform="matrix(.707 -.707 .707 .707 -36.806 317.815)"/><path d="m355.453 241.405-28.284-28.285-28.284-28.284-28.284-28.284-28.286 28.286 28.284 28.284 28.285 28.284 28.284 28.284z" fill="#6d91ac"/><path d="m134.506 349.215 136.094-136.094-28.284-28.284-136.094 136.094c-23.335 23.335-23.335 61.518 0 84.853s61.521 23.331 84.853 0l99.499-99.499c-.638-2.381-1.277-4.763-1.915-7.146-1.723-6.465 4.298-12.216 10.584-10.442 2.344.628 4.689 1.257 7.034 1.885l20.891-20.892-28.284-28.284-136.094 136.094c-7.722 7.723-20.562 7.722-28.284 0-7.723-7.723-7.717-20.568 0-28.285z" fill="#cff5fd"/><path d="m270.599 213.122-136.093 136.093c-7.717 7.716-7.723 20.561 0 28.284 7.722 7.722 20.562 7.723 28.284 0l136.094-136.094z" fill="#ff5d7d"/><path d="m298.165 334.586c-10.25 16.714-16.163 36.376-16.163 57.42 0 60.751 49.249 110 110 110s110-49.249 110-110-49.249-110-110-110c-21.047 0-40.71 5.914-57.426 16.167-9.433-2.531-18.866-5.062-28.299-7.591-2.345-.628-4.689-1.257-7.034-1.885-6.287-1.774-12.307 3.977-10.584 10.442.638 2.382 1.277 4.764 1.915 7.146 2.529 9.437 5.06 18.869 7.591 28.301zm93.837 97.419c-22.091 0-40-17.908-40-40s17.908-40 40-40 40 17.908 40 40-17.908 40-40 40z" fill="#fff"/><ellipse cx="392.002" cy="392.005" fill="#ff5d7d" rx="40" ry="40" transform="matrix(.707 -.707 .707 .707 -162.375 392.003)"/></g><g><path d="m392.002 272.005c-20.704 0-40.967 5.319-58.881 15.423-2.51-.673-5.02-1.347-7.53-2.02l78.923-78.923c11.107 5.434 25.497 3.054 34.147-5.862 11.606-11.128 11.606-31.299 0-42.426l-21.213-21.213 36.292-36.294 7.071 7.071c11.698 11.697 30.73 11.696 42.428-.001 11.696-11.696 11.696-30.729 0-42.427l-56.569-56.568c-5.651-5.65-13.185-8.763-21.214-8.763-8.028.001-15.562 3.113-21.212 8.764-11.608 11.128-11.607 31.297-.001 42.426l7.071 7.071-36.293 36.294-21.213-21.213c-11.13-11.607-31.298-11.606-42.427 0-8.916 8.647-11.296 23.041-5.862 34.146l-206.368 206.37c-24.36 23.411-27.192 64.841-6.569 91.421l-89.653 89.653c-3.905 3.905-3.905 10.237 0 14.143 3.906 3.905 10.237 3.905 14.143 0l89.653-89.653c12.007 8.995 26.575 13.86 41.925 13.86 18.745-.001 36.323-7.256 49.496-20.429l87.254-87.255c.674 2.51 1.347 5.021 2.021 7.531-45.212 78.581 13.806 179.669 104.582 178.874 159.188-6.587 159.156-233.43-.001-240zm-135.544-87.168 14.142-14.143 70.71 70.71-14.143 14.143zm76.136-47.853-33.709 33.71-14.142-14.142 33.709-33.71zm22.859 90.278-14.141-14.141 33.71-33.71 14.141 14.141zm5.426-61.994-33.71 33.71-14.142-14.142 33.709-33.71zm57.507-142.36c3.899-3.9 10.243-3.899 14.142 0l56.569 56.567c3.898 3.899 3.898 10.244-.001 14.144-3.897 3.898-10.242 3.899-14.142 0l-56.568-56.569c-3.848-3.684-3.848-10.459 0-14.142zm-29.222 85.792 36.293-36.294 14.142 14.142-36.293 36.294zm-63.64-21.213c3.899-3.9 10.243-3.899 14.142 0l84.854 84.854c3.847 3.684 3.847 10.458-.002 14.141-3.683 3.848-10.457 3.848-14.141 0l-84.854-84.853c-3.899-3.899-3.899-10.244.001-14.142zm-141.521 311.225c-9.396 9.396-21.951 14.57-35.354 14.571-13.403 0-25.959-5.175-35.355-14.571-19.302-18.494-19.301-52.216 0-70.71l129.021-129.022 14.142 14.142-32.689 32.688c-3.905 3.905-3.905 10.237 0 14.143 3.906 3.905 10.236 3.905 14.143 0l32.689-32.688 14.142 14.142-129.023 129.021c-3.832 3.835-10.31 3.834-14.142 0-3.833-3.833-3.833-10.309 0-14.142l32.693-32.694c3.905-3.905 3.905-10.237 0-14.143-3.906-3.904-10.236-3.904-14.143 0l-32.693 32.694c-11.697 11.697-11.697 30.729 0 42.427 11.697 11.696 30.729 11.697 42.427 0l129.022-129.022 14.141 14.141-9.738 9.738c-.469-.126-.937-.251-1.406-.377-6.371-1.769-13.255.023-17.986 4.686-4.806 4.736-6.638 11.456-4.896 17.99.14.523.28 1.046.42 1.569zm107.999-6.707c0-18.478 5.079-36.525 14.688-52.191 1.436-2.341 1.846-5.169 1.134-7.82-2.954-11.008-5.906-22.014-8.855-33.019 11.006 2.949 22.012 5.902 33.017 8.855 2.652.714 5.479.303 7.82-1.134 34.772-22.317 84.836-18.382 115.452 7.911l-35.696 35.696c-5.203-3.45-11.085-5.953-17.4-7.261 9.955-9.072 3.49-26.063-10.158-26.038-8.284 0-15 6.716-15 15v.008c0 4.364 1.864 8.291 4.839 11.031-6.265 1.298-12.105 3.773-17.278 7.181.173-4.051-1.288-8.16-4.381-11.252-5.857-5.857-15.355-5.857-21.213 0s-5.858 15.355 0 21.213l.005.005c3.099 3.09 7.164 4.547 11.246 4.379-3.408 5.173-5.882 11.013-7.18 17.279-9.071-9.955-26.063-3.49-26.038 10.158 0 8.284 6.716 15 15 15h.008c4.364 0 8.291-1.864 11.031-4.839 1.309 6.314 3.811 12.195 7.261 17.397l-35.696 35.696c-14.124-17.246-22.606-39.278-22.606-63.255zm130 0c.283 21.758-23.524 36.691-42.927 27.069l39.996-39.997c1.878 3.918 2.931 8.302 2.931 12.928zm-60 0c-.283-21.758 23.523-36.691 42.926-27.07l-39.996 39.996c-1.877-3.916-2.93-8.3-2.93-12.926zm30 100c-23.977 0-46.009-8.482-63.255-22.603l35.696-35.696c5.203 3.45 11.085 5.953 17.4 7.261-9.954 9.071-3.488 26.062 10.159 26.038 8.284 0 15-6.716 15-15v-.007c0-4.364-1.864-8.291-4.839-11.031 6.265-1.298 12.104-3.772 17.277-7.18-.189 4.51 1.651 9.055 5.386 12.168 6.329 5.282 15.799 4.468 21.126-1.921 5.304-6.364 4.443-15.822-1.921-21.126l-.006-.005c-2.983-2.485-6.646-3.616-10.241-3.461 3.408-5.173 5.882-11.013 7.18-17.279 9.071 9.954 26.062 3.488 26.038-10.159 0-8.284-6.716-15-15-15h-.007c-4.364 0-8.291 1.864-11.031 4.839-1.309-6.314-3.812-12.195-7.261-17.398l35.696-35.696c53.177 63.958 6.516 163.638-77.397 163.256z"/><path d="m199.017 294.704c2.56 0 5.118-.977 7.071-2.929l.005-.005c9.007-9.757-4.403-23.142-14.147-14.138-3.905 3.905-3.905 10.237 0 14.143 1.953 1.952 4.511 2.929 7.071 2.929z"/></g></g></svg>