<svg id="Layer_1" enable-background="new 0 0 512.011 512.011" height="512" viewBox="0 0 512.011 512.011" width="512" xmlns="http://www.w3.org/2000/svg"><g><g clip-rule="evenodd" fill-rule="evenodd"><ellipse cx="321.96" cy="190.009" fill="#cff5fd" rx="140" ry="140" transform="matrix(.707 -.707 .707 .707 -40.057 283.313)"/><path d="m181.96 190.009c0-77.32 62.68-140 140-140s140 62.68 140 140-62.681 140-140 140-140-62.68-140-140zm-17.65 86.939c16.421 29.713 40.998 54.29 70.711 70.711 25.772 14.243 55.409 22.35 86.939 22.35 99.411 0 180-80.589 180-180s-80.589-180-180-180-180 80.589-180 180c0 31.53 8.107 61.167 22.35 86.939z" fill="#e3eaef"/><path d="m235.021 347.659c-29.713-16.421-54.29-40.998-70.711-70.711l-19.127 19.127c-7.779 7.779-7.779 20.506 0 28.284l3.656 3.656 35.117 35.116 3.655 3.655c7.778 7.778 20.506 7.778 28.284 0z" fill="#6d91ac"/><path d="m183.955 363.132-35.117-35.116-130.004 122.694c-12 11.325-11.666 30.76 0 42.426s31.103 11.999 42.426 0z" fill="#a7bdcd"/><ellipse cx="321.96" cy="190.009" fill="#cbe558" rx="50" ry="50" transform="matrix(.707 -.707 .707 .707 -40.057 283.313)"/></g><g><path d="m321.96.009c-139.797-1.338-233.59 151.37-169.887 275.034l-13.961 13.961c-10.466 10.465-11.567 26.802-3.306 38.504l-122.836 115.929c-16.063 14.569-15.675 41.819-.207 56.77 7.652 7.656 18.296 11.959 29.157 11.799 10.644-.153 20.451-4.417 27.613-12.006l115.928-122.834c5.015 3.544 11.001 5.455 17.291 5.454 8.029 0 15.562-3.112 21.213-8.763l13.961-13.961c123.698 63.706 276.373-30.113 275.033-169.89.001-104.764-85.232-189.997-189.999-189.997zm-267.972 486.263c-3.42 3.624-8.164 5.661-13.356 5.736-5.533.062-10.87-2.087-14.727-5.943-3.857-3.857-6.023-9.225-5.944-14.727.075-5.192 2.112-9.936 5.736-13.356l122.939-116.026 21.378 21.378zm154.835-126.557c-3.683 3.848-10.459 3.848-14.142 0l-42.427-42.426c-3.899-3.899-3.899-10.243 0-14.142l10.121-10.121c14.645 22.608 33.96 41.923 56.568 56.568zm113.137.294c-93.738 0-170-76.262-170-170 9.338-225.528 330.696-225.463 340 .001 0 93.737-76.261 169.999-170 169.999z"/><path d="m321.96 40.009c-23.51 0-46.035 5.298-66.95 15.747-4.94 2.468-6.945 8.475-4.477 13.415s8.475 6.943 13.415 4.477c84.507-43.523 189.189 21.202 188.011 116.363.001 71.681-58.317 129.999-129.999 129.999-95.155 1.17-159.898-103.512-116.359-188.017 2.469-4.94.465-10.947-4.475-13.416-4.942-2.469-10.947-.466-13.416 4.475-50.243 97.521 24.44 218.31 134.252 216.957 198.984-8.233 198.945-291.788-.002-300z"/><path d="m216.962 190.009c.206 20.549 27.121 27.458 37.328 10h8.504c1.534 9.104 5.125 17.518 10.277 24.747l-2.496 2.496c-6.672-1.782-14.086-.055-19.321 5.179l-.005.005c-7.811 7.811-7.808 20.471.003 28.282 14.743 14.368 38.544.29 33.466-19.324l2.496-2.496c7.229 5.152 15.643 8.744 24.747 10.277v8.503c-5.978 3.458-10 9.921-10 17.324v.007c0 11.046 8.954 19.997 20 19.997 20.545-.203 27.461-27.12 10-37.328v-8.503c9.104-1.534 17.518-5.125 24.747-10.277l2.497 2.497c-1.695 6.351-.229 13.406 4.522 18.631l.005.005c7.449 8.191 20.1 8.756 28.25 1.342 8.173-7.43 8.773-20.082 1.343-28.255-5.208-5.729-12.981-7.738-19.978-5.868l-2.495-2.495c5.152-7.229 8.743-15.643 10.277-24.747h8.503c3.458 5.978 9.921 10 17.324 10h.007c11.046 0 19.997-8.954 19.997-20-.203-20.545-27.12-27.461-37.328-10h-8.503c-1.534-9.104-5.125-17.518-10.277-24.747l2.496-2.496c6.818 1.794 14.096.015 19.321-5.179l.005-.005c7.811-7.811 7.808-20.471-.002-28.282-7.811-7.81-20.476-7.809-28.287.002-5.234 5.234-6.961 12.648-5.179 19.321l-2.496 2.496c-7.228-5.152-15.643-8.743-24.747-10.277v-8.503c5.978-3.458 10-9.921 10-17.324v-.007c0-11.046-8.954-19.997-20-19.997-20.545.203-27.461 27.12-10 37.328v8.503c-9.104 1.534-17.518 5.125-24.747 10.277l-2.495-2.495c1.87-6.998-.139-14.77-5.868-19.978l-.005-.005c-8.173-7.429-20.818-6.825-28.25 1.348-7.43 8.173-6.825 20.825 1.348 28.255 5.211 4.707 12.122 6.232 18.631 4.521l2.497 2.497c-5.152 7.228-8.743 15.643-10.277 24.746h-8.504c-3.458-5.978-9.921-10-17.324-10h-.007c-11.049.002-20 8.956-20 20.002zm104.998-40c22.056 0 40 17.944 40 40-2.197 53.066-77.811 53.051-80 0 0-22.056 17.944-40 40-40z"/><path d="m216.241 98.411c4.075 3.708 10.404 3.42 14.128-.675 3.715-4.086 3.414-10.411-.673-14.126-4.086-3.714-10.411-3.414-14.126.673l-.005.005c-3.714 4.086-3.41 10.408.676 14.123z"/></g></g></svg>