<svg id="Layer_1" enable-background="new 0 0 512.012 512.012" height="512" viewBox="0 0 512.012 512.012" width="512" xmlns="http://www.w3.org/2000/svg"><g><g clip-rule="evenodd" fill-rule="evenodd"><circle cx="392.007" cy="120.009" fill="#cbe558" r="40"/><path d="m152.24 69.807 34.641-20c9.526-5.5 12.821-17.794 7.32-27.32-5.5-9.527-17.794-12.821-27.321-7.321l-34.642 20c-9.526 5.5-12.82 17.794-7.32 27.321 5.502 9.526 17.796 12.82 27.322 7.32z" fill="#6d91ac"/><path d="m159.56 57.127h40.001v40h-40.001z" fill="#a7bdcd" transform="matrix(.866 -.5 .5 .866 -14.507 100.115)"/><path d="m206.882 84.448-34.642 20-8.66 5c-9.526 5.5-12.82 17.794-7.32 27.32 17.665 30.596 42.686 73.935 49.999 86.601l86.602-50-49.999-86.602c-5.5-9.526-17.794-12.82-27.32-7.32z" fill="#e3eaef"/><path d="m209.561 195.69h100v40.002h-100z" fill="#a7bdcd" transform="matrix(.866 -.5 .5 .866 -73.071 158.678)"/><path d="m312.862 208.012-86.603 50 5 8.661c.945 1.636 1.97 3.2 3.068 4.687 8.445 11.445 21.18 18.41 34.67 19.949 3.682.42 7.421.436 11.144.028 6.66-.729 13.27-2.814 19.42-6.364 6.149-3.55 11.26-8.233 15.221-13.636 2.214-3.02 4.07-6.266 5.547-9.665 5.412-12.452 5.747-26.964.058-39.999-.739-1.694-1.58-3.363-2.525-5z" fill="#6d91ac"/><path d="m102.821 243.792c-5.976 28.578-5.611 60.724 1.765 98.22h2.499c6.962-11.861 18.247-20.001 32.92-20.001 9.203 0 17.074 3.202 23.381 8.517-5.823-29.426-6.309-53.806-1.972-74.548 3.478-16.632 10.308-31.356 20.176-44.925-11.932 1.596-24.446-2.191-33.615-11.361-7.794-7.794-11.699-18.004-11.715-28.219-16.358 21.228-27.688 44.815-33.439 72.317z" fill="#e3eaef"/><path d="m104.587 342.011h-34.582c-11 0-20 8.999-20 20 0 11 9 20 20 20h26.668l3.333-20c1.205-7.227 3.603-14.077 7.08-19.999h-2.499z" fill="#66e0f7"/><path d="m107.086 342.011c-3.477 5.922-5.875 12.772-7.08 19.999l-3.333 20-6.667 40.001h100.001l-6.667-40.001-3.333-20c-1.205-7.227-3.603-14.077-7.079-19.999-2.595-4.421-5.791-8.326-9.54-11.484-6.307-5.314-14.177-8.517-23.381-8.517-14.674.001-25.959 8.141-32.921 20.001z" fill="#a7bdcd"/><path d="m172.927 342.011c3.476 5.922 5.875 12.772 7.079 19.999l3.333 20h206.665c11 0 20-9 20-20s-9-19.999-20-19.999z" fill="#66e0f7"/><path d="m410.005 422.012h-219.998-100.001-40.001c-11 0-20 8.999-20 19.999v20h400v-20c0-10.999-9-19.999-20-19.999z" fill="#e3eaef"/><path d="m430.005 462.012h-400-20v40h440v-40z" fill="#6d91ac"/><path d="m204.544 143.125c-15.621-15.621-40.948-15.621-56.568 0-7.827 7.827-11.732 18.091-11.716 28.35.017 10.215 3.922 20.425 11.716 28.219 9.169 9.169 21.683 12.957 33.615 11.361 8.395-1.123 16.502-4.91 22.953-11.361 15.621-15.622 15.621-40.948 0-56.569z" fill="#a7bdcd"/><path d="m392.007 160.009c-22.091 0-40-17.908-40-40s17.909-40 40-40 40 17.909 40 40-17.909 40-40 40zm-57.426 53.834c16.716 10.252 36.38 16.167 57.426 16.167 60.751 0 110-49.249 110-110s-49.249-110-110-110-110 49.249-110 110c0 21.044 5.912 40.706 16.163 57.42-3.169 11.812-6.339 23.624-9.506 35.447-1.723 6.465 4.298 12.216 10.584 10.442 11.778-3.156 23.555-6.316 35.333-9.476z" fill="#fff"/></g><g><path d="m176.548 180.845c13.268-.528 13.258-19.477 0-20h-.007c-13.269.53-13.252 19.478.007 20z"/><path d="m140.232 351.771h-.007c-5.523 0-9.997 4.477-9.997 10 .528 13.263 19.479 13.263 20.004 0 0-5.523-4.477-10-10-10z"/><path d="m392.007 240.01c66.168 0 119.999-53.832 119.999-120-6.126-156.777-228.711-160.168-239.932-4.042l-21.11-36.564c-4-6.928-10.479-11.89-18.243-13.97-7.765-2.08-15.856-1.023-22.784 2.978l-.015.009-10.888-18.861c2.872-3.361 4.983-7.355 6.164-11.764 2.08-7.764 1.023-15.856-2.977-22.784-4-6.929-10.479-11.89-18.243-13.971-7.765-2.08-15.856-1.022-22.785 2.978l-34.7 20.034c-14.106 7.753-19.333 27.259-10.993 41.027 4 6.929 10.479 11.891 18.244 13.971 4.375 1.17 8.86 1.36 13.27.544l10.888 18.859-.015.009c-12.176 7.031-17.568 21.359-13.852 34.302-.991.847-1.957 1.739-2.894 2.676-8.876 8.876-13.715 20.282-14.52 31.918-16.787 22.489-27.733 46.711-33.429 73.945-5.708 27.298-5.849 56.981-.402 90.434h-22.682c-39.854 1.655-39.824 58.429 0 60.068h14.909l-3.345 20.069h-31.599c-16.561 0-30.034 13.473-30.034 30.034v10.017.017h-10.034c-5.523 0-10 4.477-10 10v40.068c0 5.523 4.477 10 10 10h440.751c5.523 0 10-4.477 10-10v-40.068c0-5.523-4.477-10-10-10h-10.034c0-.006 0-.011 0-.017v-10.017c0-16.561-13.473-30.034-30.034-30.034h-211.903l-3.345-20.069h195.214c39.854-1.655 39.824-58.429 0-60.068h-62.676c-13.268.528-13.258 19.477 0 20h62.676c13.314.553 13.305 19.521 0 20.068h-198.547l-1.946-11.678c-.482-2.895-1.117-5.695-1.894-8.39h49.711c13.268-.528 13.258-19.477 0-20h-59.384c-1.763-2.394-3.683-4.602-5.744-6.61-7.156-42.237-6.699-72.549 14.874-105.494 1.578-.359 3.142-.795 4.686-1.308l29.612 51.289c7.997 13.851 20.959 23.773 36.5 27.937 5.211 1.396 10.493 2.087 15.737 2.086 10.395 0 20.635-2.715 29.842-8.031 12.967-7.486 22.614-19.511 27.164-33.858 3.423-10.796 3.742-22.184 1.03-32.94.277-.074.554-.149.831-.223 17.915 10.104 38.177 15.424 58.881 15.424zm0-220c55.14 0 100 44.86 100 100 .674 77.247-86.784 126.2-152.198 85.309-2.343-1.439-5.182-1.844-7.82-1.134-11.004 2.953-22.01 5.905-33.016 8.855 2.874-10.724 5.748-21.438 8.623-32.152l.232-.866c.712-2.652.302-5.479-1.134-7.82-40.888-65.427 8.081-152.868 85.313-152.192zm-172.708 204.888 66.006-38.108c-2.101 7.831-4.202 15.665-6.304 23.511-.324 1.215-.523 2.437-.603 3.651l-49.063 28.327zm-64.017-75.315c11.725-11.724 30.8-11.723 42.523 0 11.664 11.192 11.665 31.331 0 42.522-11.722 11.724-30.798 11.724-42.523 0-11.723-11.723-11.723-30.798 0-42.522zm-16.362-89.851c-2.604-.698-4.77-2.35-6.099-4.652-2.773-4.569-1.013-11.135 3.673-13.706l34.7-20.034c2.302-1.329 5.003-1.678 7.608-.979 2.604.698 4.77 2.35 6.099 4.652s1.677 5.003.979 7.607-2.35 4.77-4.652 6.099l-34.701 20.034c-2.302 1.329-5.004 1.676-7.607.979zm26.267 11.341 17.38-10.034 10.034 17.38-17.38 10.034zm2.699 44.709 52.052-30.051c2.301-1.329 5.006-1.677 7.607-.979 2.604.697 4.77 2.35 6.099 4.651l45.085 78.089-66.326 38.292c18.996-18.704 18.79-51.878-.456-70.345-13.222-13.221-32.058-17.487-48.904-12.8.52-2.783 2.204-5.333 4.843-6.857zm-97.778 256.024c-13.314-.553-13.305-19.521 0-20.068h22.083c-.777 2.695-1.412 5.495-1.894 8.39l-1.947 11.679h-18.242zm370.649 120.206h-420.752v-20.068h420.751v20.068zm-20.034-50.103v10.017.017h-380.684c0-.006 0-.011 0-.017v-10.017c0-5.533 4.501-10.034 10.034-10.034h360.616c5.532 0 10.034 4.501 10.034 10.034zm-318.775-30.034 8.077-48.46c6.953-42.343 53.484-42.282 60.408 0l8.077 48.46zm38.281-100.172c-10.77 0-20.621 3.601-28.734 10.01-6.429-47.555-1.957-87.889 20.953-127.144 2.256 4.198 5.153 8.14 8.692 11.679 6.663 6.663 14.752 11.05 23.293 13.165-5.887 10.771-10.027 22.04-12.548 34.099-3.677 17.585-4.09 37.139-1.224 59.363-3.355-.771-6.842-1.172-10.432-1.172zm153.871-37.415c-9.224 5.326-20.021 6.727-30.402 3.945-10.38-2.781-19.03-9.394-24.355-18.618l-.009-.015 48.82-28.186c4.162 2.235 9.087 2.841 13.737 1.549 3.692-.989 7.383-1.979 11.074-2.969 4.087 16.922-3.378 35.352-18.865 44.294z"/><path d="m332.006 135.009h.007c4.364 0 8.292-1.864 11.032-4.839 1.299 6.266 3.773 12.106 7.182 17.279-13.465-.648-20.929 15.953-11.253 25.593 5.857 5.858 15.356 5.858 21.213 0l.005-.005c3.092-3.092 4.551-7.197 4.378-11.246 5.173 3.408 11.013 5.882 17.279 7.18-9.955 9.071-3.49 26.063 10.158 26.038 8.284 0 15-6.716 15-15v-.007c0-4.364-1.864-8.292-4.839-11.032 6.265-1.298 12.106-3.773 17.278-7.181-.172 4.052 1.288 8.16 4.381 11.253 5.857 5.858 15.356 5.858 21.213 0 5.858-5.858 5.858-15.355 0-21.213l-.005-.005c-3.091-3.092-7.197-4.551-11.246-4.378 3.408-5.173 5.882-11.013 7.18-17.279 9.071 9.955 26.063 3.489 26.038-10.159 0-8.284-6.716-15-15-15h-.007c-4.364 0-8.291 1.864-11.031 4.839-1.298-6.265-3.772-12.105-7.181-17.278 13.471.644 20.924-15.959 11.252-25.594-5.857-5.858-15.355-5.858-21.213 0l-.005.005c-3.092 3.092-4.551 7.197-4.378 11.245-5.173-3.408-11.013-5.882-17.278-7.18 9.955-9.071 3.489-26.063-10.159-26.038-8.284 0-15 6.716-15 15v.007c0 4.364 1.864 8.291 4.839 11.031-6.266 1.299-12.106 3.773-17.278 7.181.172-4.051-1.288-8.16-4.381-11.253-5.857-5.858-15.355-5.858-21.213 0s-5.858 15.355 0 21.213l.005.005c3.098 3.09 7.164 4.547 11.246 4.378-3.408 5.173-5.882 11.013-7.18 17.279-9.071-9.955-26.063-3.49-26.038 10.158-.001 8.287 6.715 15.003 14.999 15.003zm60.001-45c16.542 0 30 13.458 30 30-1.648 39.799-58.358 39.787-60 0 0-16.542 13.458-30 30-30z"/><path d="m282.974 331.738c-5.523 0-9.996 4.477-9.996 10 .528 13.263 19.479 13.263 20.003 0 0-5.523-4.477-10-10-10z"/></g></g></svg>