<svg id="Layer_1" enable-background="new 0 0 511.676 511.676" height="512" viewBox="0 0 511.676 511.676" width="512" xmlns="http://www.w3.org/2000/svg"><g><g clip-rule="evenodd" fill-rule="evenodd"><g fill="#ffdcd5"><path d="m217.621 195.647c0-13.619 11.137-24.762 24.749-24.762h-11.451c-13.611 0-24.749-11.144-24.749-24.762s11.137-24.762 24.749-24.762h65.94.119 118.28c13.612 0 24.75-11.143 24.75-24.762s-11.138-24.761-24.75-24.761h-184.903l19.655-19.666c9.625-9.63 9.625-25.389 0-35.018-9.624-9.629-25.376-9.629-35.001 0l-54.657 54.684c-21.716 0-40.281 14.179-46.906 33.741h-77.608v137.476h80.531c8.253 15.928 24.902 26.877 43.983 26.877h93.469c-13.612 0-24.749-11.143-24.749-24.762s11.137-24.762 24.749-24.762h-11.451c-13.612.001-24.749-11.142-24.749-24.761z"/><path d="m206.169 146.124c0 13.618 11.138 24.762 24.749 24.762h11.451 54.489c13.612 0 24.75-11.143 24.75-24.762 0-13.579-11.072-24.697-24.631-24.762h-.119-65.94c-13.611 0-24.749 11.143-24.749 24.762z"/><path d="m242.37 170.886c-13.612 0-24.749 11.143-24.749 24.762s11.138 24.762 24.749 24.762h11.451 43.038c13.612 0 24.75-11.143 24.75-24.762s-11.137-24.762-24.75-24.762z"/><path d="m296.859 220.409h-43.038c-13.612 0-24.749 11.143-24.749 24.762s11.137 24.762 24.749 24.762h43.038c13.612 0 24.75-11.143 24.75-24.762-.001-13.619-11.138-24.762-24.75-24.762z"/></g><path d="m415.838 165.033c-5.681 0-24.169 20.759-24.169 36.732 0 13.225 10.922 24.548 24.169 24.497 13.247.051 24.169-11.272 24.169-24.497 0-15.973-18.488-36.732-24.169-36.732z" fill="#ff5d7d"/><path d="m455.838 269.932h-80c-11 0-20 9-20 20s9 20 20 20h80c11 0 20-9 20-20s-9-20-20-20z" fill="#66e0f7"/><path d="m455.838 309.932h-80v47.801h40v77.4h-40v26.801c0 22 18 40 40 40s40-18 40-40z" fill="#cff5fd"/><path d="m375.838 357.733h40v77.4h-40z" fill="#fff"/></g><g><path d="m331.608 146.124c0-5.275-1.181-10.279-3.292-14.762h86.941c46.112-1.915 46.076-67.626 0-69.523h-160.769l2.595-2.596c13.545-13.553 13.545-35.605 0-49.157-12.887-13.447-36.26-13.447-49.147 0l-51.882 51.908c-21.301 1.537-40.083 14.42-49.307 33.586h-70.909c-5.523 0-10 4.477-10 10v137.476c0 5.523 4.477 10 10 10h74.811c10.976 16.72 29.504 26.877 49.704 26.877h136.506c31.014.059 46.345-38.163 24.366-59.523 13.745-13.015 13.741-36.513 0-49.523 6.406-6.311 10.383-15.081 10.383-24.763zm-206.36 92.331c-1.719-3.317-5.143-5.399-8.879-5.399h-70.531v-117.477h67.609c4.287 0 8.097-2.732 9.472-6.792 5.459-16.119 20.502-26.948 37.434-26.948 2.653 0 5.197-1.054 7.073-2.931l54.656-54.684c5.441-5.684 15.415-5.684 20.856 0 5.753 5.756 5.753 15.123 0 20.88l-36.66 36.679c-9.006 9.758 4.402 23.145 14.146 14.139l14.075-14.083h180.759c19.573.813 19.558 28.718 0 29.523h-184.339c-25.103-.324-42.4 27.054-31.458 49.523h-3.538c-13.268.528-13.258 19.477 0 20h14.988c-7.889 15.902-.988 36.604 14.1 44.868-6.691 9.43-7.861 23.688-2.648 34.179h-62.011c-14.788 0-28.239-8.23-35.104-21.477zm186.36 6.716c0 8.139-6.617 14.761-14.75 14.761h-43.038c-19.571-.813-19.556-28.718 0-29.523h43.038c8.133 0 14.75 6.622 14.75 14.762zm-14.749-34.762h-54.489c-19.573-.813-19.558-28.718 0-29.523h54.488c19.572.813 19.558 28.717.001 29.523zm0-49.524h-65.939c-19.572-.813-19.557-28.718 0-29.523h65.939c19.572.813 19.556 28.718 0 29.523z"/><path d="m415.838 155.033c-8.756 0-17.696 10.286-22.246 16.417-11.556 15.073-18.777 37.46-1.649 54.843 6.456 6.431 14.904 9.968 23.729 9.968h.257c8.898 0 17.348-3.537 23.804-9.968 17.144-17.399 9.886-39.799-1.649-54.843-4.55-6.131-13.49-16.417-22.246-16.417zm9.779 57.091c-2.692 2.682-6.152 4.152-9.818 4.137-3.591.015-7.049-1.456-9.741-4.137-11.189-10.685 2.158-28.372 9.779-35.749 7.628 7.385 20.968 25.06 9.78 35.749z"/><path d="m485.838 289.932c0-16.542-13.458-30-30-30h-80c-33.832.645-41.303 46.706-10 58.286v143.716c2.754 66.348 97.271 66.297 100 0v-143.715c11.64-4.128 20-15.249 20-28.287zm-100 77.801h20v57.4h-20zm30 124.201c-16.542 0-30-13.458-30-30v-16.801h30c5.523 0 10-4.477 10-10v-77.4c0-5.523-4.477-10-10-10h-30v-27.8h60v142.002c0 16.541-13.458 29.999-30 29.999zm40-192.002h-80c-13.27-.551-13.259-19.454 0-20h80c13.27.551 13.26 19.455 0 20z"/><path d="m150.927 160.885h-.008c-5.523 0-9.996 4.477-9.996 10 .528 13.263 19.479 13.263 20.004 0 0-5.523-4.477-10-10-10z"/></g></g></svg>