<svg id="Layer_1" enable-background="new 0 0 512.026 512.026" height="512" viewBox="0 0 512.026 512.026" width="512" xmlns="http://www.w3.org/2000/svg"><g><g clip-rule="evenodd" fill-rule="evenodd"><path d="m50.025 301.681c0-88.366 71.634-160 160-160 28.567 0 56.613 7.648 81.225 22.15-5.931-13.514-9.223-28.448-9.223-44.152 0-1.525.031-3.042.092-4.552-22.997-8.887-47.439-13.446-72.094-13.446-110.457 0-200 89.543-200 200s89.543 200 200 200 200-89.543 200-200c0-24.655-4.558-49.097-13.446-72.094-1.51.062-3.027.092-4.552.092-15.704 0-30.639-3.293-44.153-9.224 14.503 24.612 22.151 52.659 22.151 81.226 0 88.366-71.634 160-160 160-88.366-.001-160-71.635-160-160z" fill="#6d91ac"/><path d="m210.025 141.681c-88.366 0-160 71.634-160 160s71.634 160 160 160c88.365 0 160-71.634 160-160 0-28.567-7.648-56.614-22.151-81.226-4.597-2.017-9.03-4.34-13.273-6.943-11.777 3.16-23.555 6.32-35.333 9.476-6.287 1.774-12.307-3.978-10.584-10.442 3.168-11.823 6.337-23.635 9.507-35.447-2.601-4.241-4.923-8.672-6.939-13.267-24.614-14.503-52.66-22.151-81.227-22.151zm-45 171.389c0-29.738 34.423-68.389 45-68.389s45 38.651 45 68.389c0 24.624-20.335 45.704-45 45.61-24.665.094-45-20.986-45-45.61z" fill="#cff5fd"/><path d="m282.027 119.679c0 15.704 3.292 30.639 9.223 44.152 2.017 4.595 4.338 9.026 6.939 13.267-3.17 11.812-6.339 23.624-9.507 35.447-1.723 6.465 4.298 12.216 10.584 10.442 11.779-3.156 23.556-6.316 35.333-9.476 4.243 2.602 8.676 4.925 13.273 6.943 13.514 5.931 28.449 9.224 44.153 9.224 1.525 0 3.042-.031 4.552-.092 58.64-2.387 105.448-50.681 105.448-109.907 0-60.751-49.249-110-110-110-59.227 0-107.52 46.808-109.908 105.448-.06 1.509-.09 3.027-.09 4.552zm109.999 40c-22.091 0-40-17.909-40-40s17.909-40 40-40 40 17.909 40 40-17.908 40-40 40z" fill="#fff"/><circle cx="392.026" cy="119.679" fill="#cbe558" r="40"/><path d="m255.025 313.07c0-29.738-34.423-68.389-45-68.389s-45 38.651-45 68.389c0 24.624 20.335 45.704 45 45.61 24.664.094 45-20.986 45-45.61z" fill="#ff5d7d"/></g><g><path d="m512.026 119.679c-4.545-148.328-212.317-162.976-238.621-18.207-132.014-43.986-275.662 60.765-273.378 200.21-.002 115.793 94.203 209.998 209.998 209.998 139.423 2.276 244.222-141.366 200.209-273.381 57.559-8.797 101.792-58.64 101.792-118.62zm-302.001 372.001c-104.766 0-190-85.233-190-190-1.688-128.457 131.258-223.136 252.027-179.59.151 7.545 1.007 15.022 2.544 22.337-46.756-19.511-102.37-16.362-146.567 8.312-4.836 2.667-6.594 8.75-3.926 13.586 2.667 4.836 8.751 6.594 13.586 3.926 44.402-24.887 101.548-24.64 145.8.65 1.224 2.593 2.544 5.145 3.957 7.651-2.808 10.465-5.616 20.932-8.425 31.417-3.846 13.685 9.307 26.539 22.884 22.663 10.415-2.79 20.828-5.583 31.241-8.377 2.508 1.415 5.063 2.735 7.658 3.961 56.395 98.306-17.367 224.426-130.78 223.463-112.843.982-186.682-124.114-131.426-222.34 2.668-4.835.912-10.918-3.924-13.586-4.837-2.668-10.919-.912-13.587 3.924-62.631 111.351 21.029 253.107 148.939 252.002 119.261 1.317 203.815-124.849 157.251-234.57 7.315 1.537 14.792 2.394 22.337 2.544 43.546 120.783-51.135 253.713-179.589 252.027zm182.002-272.002c-18.478 0-36.527-5.08-52.198-14.691-2.343-1.439-5.181-1.843-7.819-1.134l-3.27.877c-9.915 2.66-19.831 5.32-29.747 7.978 2.951-11.013 5.903-22.015 8.855-33.019.712-2.651.302-5.479-1.134-7.819-40.88-65.423 8.071-152.866 85.314-152.191 132.655 5.489 132.629 194.525-.001 199.999z"/><path d="m452.027 104.679h-.007c-4.364 0-8.292 1.864-11.032 4.839-1.298-6.266-3.773-12.106-7.181-17.279 13.472.645 20.925-15.959 11.253-25.594-5.857-5.858-15.355-5.858-21.213 0l-.005.005c-3.092 3.092-4.551 7.197-4.378 11.246-5.173-3.408-11.013-5.882-17.279-7.18 9.955-9.071 3.49-26.063-10.158-26.038-8.284 0-15 6.716-15 15v.007c0 4.364 1.864 8.292 4.839 11.032-6.266 1.298-12.106 3.773-17.279 7.181.164-3.813-1.118-7.69-3.888-10.737-5.573-6.131-15.061-6.582-21.189-1.009-6.13 5.573-6.582 15.059-1.009 21.189l.005.005c3.12 3.423 7.42 5.073 11.739 4.895-3.408 5.173-5.882 11.013-7.18 17.279-9.071-9.955-26.063-3.49-26.038 10.158 0 8.284 6.716 15 15 15h.007c4.364 0 8.292-1.864 11.032-4.839 1.298 6.266 3.773 12.106 7.181 17.278-4.051-.172-8.159 1.288-11.252 4.38-5.858 5.858-5.858 15.355 0 21.213 5.857 5.858 15.356 5.858 21.213 0l.005-.005c3.092-3.092 4.551-7.197 4.378-11.246 5.173 3.408 11.013 5.882 17.279 7.18-9.955 9.071-3.489 26.063 10.159 26.038 8.284 0 15-6.716 15-15v-.007c0-4.364-1.864-8.291-4.839-11.031 6.265-1.299 12.105-3.772 17.278-7.181-.181 4.291 1.471 8.63 4.897 11.745 6.113 5.561 15.603 5.134 21.189-1.009 5.573-6.129 5.121-15.616-1.009-21.189l-.005-.005c-3.045-2.769-6.919-4.05-10.729-3.886 3.408-5.173 5.882-11.013 7.18-17.278 9.071 9.955 26.063 3.49 26.038-10.158-.002-8.283-6.718-14.999-15.002-14.999zm-60 45c-16.542 0-30-13.458-30-30 1.648-39.799 58.357-39.788 60 0-.001 16.542-13.459 30-30 30z"/><path d="m209.783 368.68h.409c14.272 0 27.846-5.694 38.238-16.046 28.557-29.01 15.068-65.977-3.909-90.869-28.022-35.816-41.008-35.761-68.994 0-18.986 24.892-32.454 61.889-3.909 90.869 10.394 10.353 23.966 16.046 38.165 16.046zm.242-113.67c9.036 4.657 35 35.318 35 58.059 0 9.359-3.903 18.615-10.709 25.395-6.647 6.622-15.261 10.251-24.328 10.215-8.992.035-17.605-3.594-24.253-10.216-6.806-6.78-10.709-16.036-10.709-25.395-.001-22.74 25.962-53.401 34.999-58.058z"/><path d="m90.163 195.94c4.075 3.708 10.404 3.42 14.128-.675 3.715-4.086 3.414-10.411-.673-14.126s-10.411-3.414-14.126.673l-.005.005c-3.714 4.087-3.41 10.408.676 14.123z"/></g></g></svg>