<svg id="Layer_1" enable-background="new 0 0 511.634 511.634" height="512" viewBox="0 0 511.634 511.634" width="512" xmlns="http://www.w3.org/2000/svg"><g><g clip-rule="evenodd" fill-rule="evenodd"><path d="m85.817 99.788v-40h-1.8-38.2c-11 0-20 8.999-20 20v362c0 11 9.002 20 20 20h259.991c-8.734-11.628-14.992-25.222-17.99-40h-222.001v-322z" fill="#88df8e"/><path d="m345.816 99.787v210.322c12.249-5.352 25.778-8.321 40-8.321v-222.001c0-10.998-9-20-20-20l-40 .001v39.999z" fill="#88df8e"/><path d="m65.817 99.787h280v322h-280z" fill="#e3eaef"/><path d="m345.817 310.109c-35.318 15.431-60 50.673-60 91.679 0 6.849.689 13.537 2 19.999 3 14.778 9.258 28.372 17.992 40 18.244 24.29 47.291 40.001 80.008 40.001 55.228 0 100-44.772 100-100s-44.772-100-100-100c-14.222 0-27.751 2.969-40 8.321zm-1.641 133.32c-7.81-7.809-7.81-20.472 0-28.281l13.359-13.359-13.359-13.359c-7.81-7.81-7.81-20.472 0-28.281 7.809-7.809 20.472-7.809 28.281 0l13.359 13.359 13.359-13.359c7.81-7.809 20.472-7.809 28.281 0 7.809 7.81 7.809 20.472 0 28.281l-13.359 13.359 13.359 13.359c7.809 7.809 7.809 20.472 0 28.281s-20.472 7.809-28.281 0l-13.359-13.359-13.359 13.359c-7.809 7.81-20.471 7.81-28.281 0z" fill="#fff"/><path d="m344.176 360.148c-7.81 7.81-7.81 20.472 0 28.281l13.359 13.359-13.359 13.359c-7.81 7.809-7.81 20.472 0 28.281 7.809 7.809 20.472 7.809 28.281 0l13.359-13.359 13.359 13.359c7.809 7.809 20.472 7.809 28.281 0 7.809-7.81 7.809-20.472 0-28.281l-13.359-13.359 13.359-13.359c7.809-7.81 7.809-20.472 0-28.281s-20.472-7.809-28.281 0l-13.359 13.359-13.359-13.359c-7.809-7.809-20.471-7.809-28.281 0z" fill="#ff5d7d"/><circle cx="205.817" cy="244.783" fill="#cbe558" r="50"/><path d="m95.817 109.787h220.001c5.5 0 10-4.5 10-10v-39.999c0-5.5-4.5-10-10-10h-69.999c0-22.092-17.909-40.001-40.001-40.001s-40.001 17.909-40.001 40.001h-70c-5.5 0-10 4.5-10 10v39.999c0 5.501 4.5 10 10 10z" fill="#6d91ac"/></g><g><path d="m205.821 59.788c13.268-.528 13.258-19.477 0-20h-.007c-13.268.53-13.251 19.479.007 20z"/><path d="m164.052 174.765-.005-.005c-7.43-8.173-20.076-8.773-28.25-1.342-8.173 7.43-8.773 20.082-1.343 28.255 5.203 5.693 12.85 7.747 19.978 5.868l2.496 2.496c-5.152 7.228-8.743 15.643-10.277 24.747h-8.504c-3.458-5.978-9.921-10-17.324-10h-.007c-11.045 0-19.996 8.954-19.996 20 .203 20.545 27.12 27.461 37.328 10h8.504c1.534 9.104 5.125 17.518 10.277 24.747l-2.496 2.496c-6.672-1.782-14.087-.056-19.321 5.179l-.005.005c-12.611 12.54-3.41 34.245 14.144 34.139 12.964.202 22.847-12.824 19.324-25.18l2.496-2.496c7.228 5.152 15.643 8.744 24.747 10.277v8.503c-5.978 3.458-10 9.921-10 17.324v.008c0 11.045 8.954 19.996 20 19.996 20.545-.203 27.461-27.12 10-37.328v-8.503c9.104-1.534 17.519-5.125 24.747-10.277l2.496 2.496c-1.782 6.672-.056 14.086 5.179 19.321l.005.005c7.81 7.811 20.472 7.808 28.282-.002 7.811-7.811 7.808-20.476-.002-28.287-5.235-5.235-12.649-6.961-19.322-5.179l-2.496-2.496c5.152-7.228 8.743-15.643 10.277-24.747h8.503c3.458 5.978 9.921 10 17.324 10h.008c11.046 0 19.996-8.954 19.996-20-.203-20.545-27.12-27.461-37.328-10h-8.503c-1.534-9.104-5.125-17.519-10.277-24.747l2.495-2.495c7.128 1.879 14.776-.176 19.979-5.868l.005-.005c7.43-8.173 6.825-20.82-1.348-28.25-14.939-13.361-37.811.907-32.776 19.979l-2.497 2.497c-7.229-5.152-15.643-8.744-24.747-10.277v-8.503c5.978-3.458 10-9.921 10-17.324v-.008c0-11.045-8.954-19.996-20-19.996-20.545.203-27.461 27.12-10 37.328v8.503c-9.104 1.534-17.518 5.125-24.746 10.277l-2.497-2.497c1.694-6.353.228-13.408-4.523-18.634zm41.766 30.018c22.056 0 40 17.944 40 40-2.197 53.066-77.811 53.05-80 0 0-22.056 17.944-40 40-40z"/><path d="m395.816 292.239v-212.452c0-16.542-13.458-30-30-30h-32.684c-3.463-5.973-9.928-9.999-17.315-9.999h-61.003c-11.778-53.07-86.238-53.032-97.994 0h-61.003c-7.387 0-13.852 4.026-17.315 9.999h-32.685c-16.542 0-30 13.458-30 30v362c0 16.542 13.458 30 30 30h255.206c64.93 78.676 194.336 33.259 194.792-70 .001-57.282-44.013-104.479-99.999-109.548zm-20-212.452v212.452c-6.866.622-13.552 1.877-19.999 3.706v-196.158c0-5.523-4.478-10-10-10h-10v-20h29.999c5.514 0 10 4.486 10 10zm-215.002 20h-64.997v-40h69.999c5.523 0 10-4.477 10-10 1.649-39.804 58.363-39.786 60.003 0 0 5.523 4.477 10 10 10h69.999v39.999h-65.003c-13.268.528-13.258 19.477 0 20h65.003c7.388 0 13.853-4.026 17.316-10h2.684v194.035c-26.916 13.793-47.438 38.356-55.843 67.964h-159.159c-13.268.528-13.258 19.477 0 20h155.451c-.6 6.571-.601 13.43 0 20.001h-200.449v-302h2.683c3.463 5.974 9.928 10 17.316 10h64.997c13.268-.527 13.258-19.475 0-19.999zm-114.997 352c-5.514 0-10-4.486-10-10v-362c0-5.514 4.486-10 10-10h30v20h-9.999c-5.523 0-10 4.477-10 10v322c0 5.523 4.477 10 10 10h214.156c1.979 6.971 4.629 13.663 7.876 20zm339.999 40.002c-49.626 0-90-40.374-90-90 4.944-119.397 175.074-119.362 180 .001 0 49.625-40.374 89.999-90 89.999z"/><path d="m443.315 374.288c0-8.013-3.12-15.546-8.786-21.212-11.697-11.695-30.727-11.695-42.424 0l-6.288 6.289-6.287-6.288c-11.166-11.637-31.259-11.637-42.424 0-11.696 11.696-11.696 30.728 0 42.424l6.288 6.288-6.289 6.288c-11.637 11.167-11.637 31.258 0 42.424 11.697 11.696 30.726 11.696 42.423 0l6.288-6.289 6.288 6.289c11.697 11.696 30.727 11.696 42.424 0 11.696-11.696 11.696-30.728 0-42.424l-6.288-6.288 6.288-6.288c5.666-5.666 8.787-13.199 8.787-21.213zm-36.289 34.572 13.359 13.359c3.898 3.898 3.898 10.241 0 14.139s-10.24 3.898-14.139 0l-13.359-13.359c-3.906-3.905-10.237-3.905-14.143 0l-13.359 13.359c-3.898 3.898-10.24 3.898-14.139 0-3.879-3.721-3.879-10.418 0-14.139l13.359-13.359c3.905-3.905 3.905-10.237 0-14.142l-13.358-13.359c-3.898-3.898-3.898-10.241 0-14.139 3.72-3.878 10.419-3.878 14.139 0l13.358 13.359c3.723 3.874 10.419 3.873 14.143 0l13.359-13.359c3.897-3.898 10.241-3.898 14.139 0 3.879 3.721 3.879 10.418 0 14.139l-13.359 13.359c-3.905 3.904-3.905 10.236 0 14.142z"/><path d="m205.817 119.787c13.268-.528 13.258-19.477 0-20h-.007c-13.268.53-13.25 19.479.007 20z"/></g></g></svg>