<svg id="Capa_1" enable-background="new 0 0 512 512" height="512" viewBox="0 0 512 512" width="512" xmlns="http://www.w3.org/2000/svg"><g><g><circle cx="256" cy="256" fill="#cceffd" r="248.5"/></g><g><circle cx="256" cy="256" fill="#f5f5f5" r="207.898"/></g><g><path d="m256 7.5c-5.038 0-10.036.168-15 .464 130.256 7.757 233.5 115.831 233.5 248.036s-103.244 240.279-233.5 248.037c4.964.295 9.962.463 15 .463 137.243 0 248.5-111.257 248.5-248.5s-111.257-248.5-248.5-248.5z" fill="#91dafa"/></g><g><path d="m256 48.102c-5.045 0-10.045.19-15 .543 107.816 7.689 192.898 97.581 192.898 207.355s-85.082 199.666-192.898 207.354c4.955.353 9.955.543 15 .543 114.819 0 207.897-93.079 207.897-207.897s-93.078-207.898-207.897-207.898z" fill="#ebe5ed"/></g><g><ellipse cx="256.863" cy="255.421" fill="#75cff9" rx="17.426" ry="17.426" transform="matrix(.16 -.987 .987 .16 -36.405 468.054)"/></g><g><path d="m290.559 371.346h-60.839c-3.568 0-6.461-2.893-6.461-6.461v-16.578c0-3.568 2.893-6.461 6.461-6.461h60.839c3.568 0 6.461 2.893 6.461 6.461v16.578c0 3.568-2.893 6.461-6.461 6.461z" fill="#5fa7ee"/></g><g><path d="m432.614 419.978c-22.338 24.049-48.801 42.984-78.652 56.282-30.896 13.762-63.855 20.74-97.962 20.74-64.374 0-124.894-25.068-170.413-70.587s-70.587-106.039-70.587-170.413c0-59.065 21.581-115.886 60.768-159.995 2.751-3.097 2.471-7.837-.626-10.588s-7.838-2.471-10.589.626c-41.627 46.857-64.553 107.216-64.553 169.957 0 68.38 26.629 132.668 74.98 181.02 48.352 48.352 112.64 74.98 181.02 74.98 36.224 0 71.236-7.415 104.065-22.038 31.71-14.125 59.816-34.236 83.539-59.775 2.819-3.035 2.645-7.781-.391-10.6-3.034-2.818-7.779-2.643-10.599.391z"/><path d="m437.02 74.98c-48.352-48.351-112.64-74.98-181.02-74.98-62.988 0-123.526 23.085-170.462 65.002-3.089 2.759-3.357 7.5-.598 10.589 2.758 3.089 7.498 3.358 10.59.598 44.183-39.458 101.172-61.189 160.47-61.189 64.374 0 124.894 25.068 170.413 70.587s70.587 106.039 70.587 170.413c0 51.444-15.98 100.528-46.215 141.944-2.442 3.345-1.71 8.037 1.636 10.479 1.334.974 2.882 1.443 4.416 1.443 2.313 0 4.595-1.067 6.063-3.079 32.122-44 49.1-96.142 49.1-150.787 0-68.38-26.629-132.668-74.98-181.02z"/><path d="m103.691 408.309c40.683 40.683 94.773 63.088 152.309 63.088s111.626-22.405 152.309-63.088c40.684-40.683 63.089-94.774 63.089-152.309 0-57.528-22.4-111.614-63.076-152.296-.004-.004-.008-.009-.012-.014-.004-.004-.009-.008-.013-.012-40.682-40.674-94.767-63.075-152.297-63.075s-111.615 22.401-152.296 63.076c-.004.004-.009.008-.013.012s-.008.009-.012.014c-40.676 40.681-63.076 94.767-63.076 152.295 0 57.535 22.405 111.626 63.088 152.309zm-31.652-159.809h-16.282c1.835-49.605 21.781-94.655 53.412-128.724l11.447 11.447c1.465 1.464 3.385 2.197 5.304 2.197s3.839-.732 5.304-2.197c2.929-2.929 2.929-7.678 0-10.606l-11.448-11.448c34.069-31.631 79.12-51.577 128.724-53.412v16.281c0 4.142 3.357 7.5 7.5 7.5s7.5-3.358 7.5-7.5v-16.281c49.604 1.835 94.655 21.781 128.724 53.412l-11.448 11.448c-2.929 2.929-2.929 7.678 0 10.606 1.465 1.464 3.385 2.197 5.304 2.197s3.839-.732 5.304-2.197l11.447-11.447c31.631 34.069 51.577 79.119 53.412 128.724h-16.282c-4.143 0-7.5 3.358-7.5 7.5s3.357 7.5 7.5 7.5h16.282c-1.835 49.605-21.781 94.655-53.412 128.724l-11.447-11.447c-2.93-2.929-7.678-2.929-10.607 0s-2.929 7.678 0 10.606l11.448 11.448c-34.069 31.631-79.12 51.577-128.724 53.412v-16.281c0-4.142-3.357-7.5-7.5-7.5s-7.5 3.358-7.5 7.5v16.281c-49.605-1.835-94.655-21.781-128.724-53.412l11.448-11.448c2.929-2.929 2.929-7.678 0-10.606-2.93-2.929-7.678-2.929-10.607 0l-11.447 11.447c-31.633-34.069-51.579-79.119-53.414-128.724h16.282c4.143 0 7.5-3.358 7.5-7.5s-3.357-7.5-7.5-7.5z"/><path d="m234.758 243.923c-1.798 3.443-2.821 7.352-2.821 11.498 0 13.744 11.182 24.926 24.927 24.926 13.744 0 24.926-11.182 24.926-24.926 0-4.146-1.023-8.055-2.821-11.498l35.914-35.914c2.929-2.929 2.929-7.678 0-10.606-2.93-2.929-7.678-2.929-10.607 0l-35.914 35.914c-3.443-1.798-7.352-2.821-11.497-2.821-4.146 0-8.055 1.023-11.499 2.821l-84.143-84.144c-2.929-2.929-7.677-2.929-10.607 0-2.929 2.929-2.929 7.678 0 10.606zm32.031 11.498c0 5.473-4.453 9.926-9.926 9.926-5.474 0-9.927-4.453-9.927-9.926s4.453-9.926 9.927-9.926c5.473 0 9.926 4.453 9.926 9.926z"/><path d="m290.559 334.345h-60.84c-7.698 0-13.961 6.263-13.961 13.962v16.578c0 7.698 6.263 13.961 13.961 13.961h60.84c7.698 0 13.961-6.263 13.961-13.961v-16.578c0-7.699-6.263-13.962-13.961-13.962zm-1.039 29.501h-58.762v-14.501h58.762z"/></g></g></svg>