<svg id="Capa_1" enable-background="new 0 0 510.267 510.267" height="512" viewBox="0 0 510.267 510.267" width="512" xmlns="http://www.w3.org/2000/svg"><g><g><ellipse cx="144.629" cy="405.689" fill="#a1f2c0" rx="35.348" ry="35.348" transform="matrix(.99 -.141 .141 .99 -55.794 24.465)"/></g><g><ellipse cx="80.363" cy="476.925" fill="#a1f2c0" rx="25.839" ry="25.839" transform="matrix(.098 -.995 .995 .098 -402.138 510.216)"/></g><g><path d="m270.677 380.432c32.676 0 60.846-19.219 73.87-46.962 1.139-2.427 3.837-3.742 6.408-2.98 8.03 2.381 16.576 3.563 25.432 3.325 42.809-1.147 77.777-35.778 79.304-78.576.798-22.357-7.418-42.782-21.282-57.961-1.864-2.04-1.864-5.197 0-7.238 13.885-15.202 22.104-35.665 21.278-58.062-1.579-42.827-36.64-77.429-79.483-78.48-8.882-.218-17.452.987-25.5 3.4-2.553.765-5.24-.53-6.389-2.935-13.125-27.474-41.157-46.463-73.638-46.463-33.626 0-62.484 20.35-74.97 49.4-1.183 2.751-4.34 4.049-7.102 2.891-10.884-4.564-22.96-6.847-35.643-6.214-42.876 2.143-77.041 37.814-77.422 80.743-.191 21.479 7.932 41.049 21.332 55.72 1.864 2.041 1.864 5.197 0 7.238-13.401 14.673-21.525 34.247-21.332 55.731.386 42.884 34.485 78.533 77.315 80.727 12.642.648 24.683-1.602 35.545-6.121 2.773-1.154 5.935.161 7.103 2.928 12.372 29.311 41.361 49.889 75.174 49.889z" fill="#a1f2c0"/></g><g><path d="m149.254 370.645c-6.955-.918-13.7.262-19.612 3.037 13.576 6.364 22.097 20.974 20.031 36.632-1.636 12.399-9.518 22.435-20.057 27.382 3.206 1.503 6.691 2.549 10.388 3.037 19.354 2.554 37.114-11.065 39.668-30.419 2.555-19.354-11.064-37.115-30.418-39.669z" fill="#83e8a3"/></g><g><path d="m100.867 461.201c-8.5-11.084-24.216-13.363-35.498-5.313 7.519 5.375 11.904 14.614 10.61 24.417-.976 7.397-4.994 13.643-10.625 17.658 9.005 6.428 21.496 6.549 30.732-.534 11.324-8.684 13.465-24.904 4.781-36.228z" fill="#83e8a3"/></g><g><path d="m434.41 190.041c13.885-15.202 22.104-35.665 21.278-58.062-1.579-42.828-36.64-77.429-79.483-78.48-8.882-.218-17.452.987-25.5 3.4-2.553.765-5.24-.53-6.389-2.935-13.126-27.475-41.158-46.464-73.639-46.464-33.626 0-62.483 20.35-74.97 49.4-.207.482-.478.917-.794 1.304v1.027c13.609-17.58 34.91-28.9 58.864-28.9 29.631 0 55.203 17.323 67.178 42.388 1.048 2.194 3.499 3.375 5.829 2.677 7.342-2.201 15.159-3.3 23.262-3.102 39.085.959 71.069 32.524 72.51 71.594.753 20.432-6.745 39.099-19.411 52.968-1.7 1.861-1.7 4.741 0 6.602 12.647 13.848 20.142 32.48 19.414 52.876-1.393 39.042-33.293 70.635-72.346 71.681-8.08.216-15.875-.862-23.201-3.033-2.345-.695-4.806.504-5.846 2.718-11.881 25.309-37.58 42.842-67.389 42.842-12.601 0-24.465-3.135-34.864-8.664 14.081 11.586 32.103 18.553 51.764 18.553 32.676 0 60.846-19.219 73.87-46.962 1.139-2.427 3.837-3.742 6.408-2.98 8.03 2.381 16.575 3.563 25.432 3.325 42.81-1.147 77.778-35.778 79.305-78.576.798-22.357-7.418-42.782-21.281-57.961-1.864-2.039-1.864-5.195-.001-7.236z" fill="#83e8a3"/></g><g><circle cx="195.884" cy="193.966" fill="#ba87ee" r="18.999"/></g><g><circle cx="266.576" cy="193.966" fill="#ba87ee" r="18.999"/></g><g><circle cx="337.268" cy="193.966" fill="#ba87ee" r="18.999"/></g><g><path d="m463.184 131.703c-1.729-46.905-39.854-84.55-86.795-85.701-8.835-.22-17.604.858-26.055 3.199-15.026-29.945-46.104-49.201-79.657-49.201-34.977 0-66.573 20.389-81.051 52.111-11.793-4.637-24.244-6.661-37.037-6.024-17.607.879-34.415 6.956-48.608 17.571-3.317 2.481-3.995 7.181-1.514 10.498s7.181 3.995 10.498 1.514c11.795-8.822 25.755-13.871 40.372-14.601 11.218-.559 22.107 1.337 32.368 5.639 6.515 2.732 14.094-.337 16.893-6.846 11.713-27.253 38.436-44.862 68.079-44.862 28.376 0 54.625 16.563 66.871 42.196 2.779 5.818 9.216 8.716 15.311 6.887 7.478-2.242 15.275-3.278 23.163-3.086 39.032.958 70.734 32.258 72.172 71.259.722 19.571-6.141 38.296-19.32 52.727-4.444 4.865-4.445 12.487-.001 17.354 13.158 14.407 20.022 33.1 19.324 52.636-.358 10.021-2.713 19.695-7.002 28.754-1.771 3.744-.174 8.215 3.57 9.988 1.036.491 2.129.723 3.204.723 2.809 0 5.502-1.586 6.784-4.293 5.166-10.914 8.004-22.567 8.434-34.638.815-22.841-6.969-44.727-21.952-61.848 15.009-17.15 22.792-39.074 21.949-61.956z"/><path d="m424.948 306.071c-13.313 12.571-30.629 19.762-48.76 20.248-7.865.209-15.635-.805-23.102-3.019-6.127-1.815-12.574 1.12-15.328 6.983-12.162 25.909-38.493 42.65-67.081 42.65-29.852 0-56.647-17.783-68.264-45.305-2.765-6.55-10.345-9.662-16.894-6.937-10.236 4.259-21.093 6.13-32.28 5.555-39.012-1.999-69.847-34.198-70.2-73.304-.169-18.772 6.71-36.744 19.37-50.605 4.444-4.866 4.444-12.488 0-17.354-12.658-13.859-19.537-31.828-19.37-50.597.128-14.321 4.417-28.228 12.404-40.215 2.297-3.447 1.365-8.103-2.083-10.4-3.447-2.297-8.104-1.365-10.4 2.082-9.608 14.419-14.768 31.155-14.921 48.399-.195 21.926 7.607 42.945 22.007 59.406-14.402 16.464-22.205 37.488-22.007 59.417.423 47.026 37.51 85.746 84.431 88.15 12.753.65 25.163-1.34 36.923-5.926 14.371 32.04 46.057 52.632 81.282 52.632 33.81 0 64.993-19.47 79.923-49.745 8.435 2.31 17.165 3.365 25.989 3.125 21.825-.585 42.657-9.227 58.657-24.336 3.012-2.844 3.147-7.591.304-10.603-2.844-3.01-7.59-3.144-10.6-.301z"/><path d="m150.235 363.21c-11.349-1.499-22.598 1.513-31.68 8.478-9.082 6.964-14.908 17.049-16.406 28.395-3.091 23.424 13.45 44.995 36.873 48.086 1.905.251 3.805.375 5.694.375 9.367 0 18.427-3.058 25.985-8.854 9.082-6.964 14.908-17.049 16.406-28.395 3.093-23.422-13.449-44.994-36.872-48.085zm22.002 46.122c-.973 7.375-4.76 13.929-10.663 18.455-5.902 4.526-13.214 6.482-20.589 5.51-7.374-.973-13.929-4.76-18.455-10.663s-6.483-13.215-5.51-20.589c.973-7.375 4.76-13.929 10.663-18.455 4.912-3.767 10.8-5.754 16.888-5.754 1.227 0 2.463.081 3.701.244 15.223 2.01 25.974 16.029 23.965 31.252z"/><path d="m84.725 443.872c-18.227-2.398-35.009 10.465-37.415 28.69-2.405 18.226 10.465 35.01 28.691 37.415 1.474.194 2.936.289 4.384.289 16.459 0 30.82-12.229 33.03-28.98 1.165-8.829-1.177-17.582-6.597-24.649-5.418-7.066-13.264-11.6-22.093-12.765zm13.819 35.452c-1.323 10.025-10.558 17.104-20.581 15.783-10.025-1.323-17.106-10.556-15.782-20.581 1.216-9.215 9.114-15.941 18.169-15.941.796 0 1.602.052 2.412.159 4.856.641 9.173 3.135 12.154 7.022 2.981 3.886 4.269 8.702 3.628 13.558z"/><path d="m222.383 193.966c0-14.612-11.887-26.499-26.499-26.499-14.611 0-26.499 11.887-26.499 26.499 0 14.611 11.887 26.499 26.499 26.499 14.611 0 26.499-11.887 26.499-26.499zm-37.998 0c0-6.341 5.158-11.499 11.499-11.499s11.499 5.158 11.499 11.499c0 6.34-5.158 11.499-11.499 11.499s-11.499-5.158-11.499-11.499z"/><path d="m293.075 193.966c0-14.612-11.887-26.499-26.498-26.499s-26.499 11.887-26.499 26.499c0 14.611 11.888 26.499 26.499 26.499s26.498-11.887 26.498-26.499zm-37.998 0c0-6.341 5.158-11.499 11.499-11.499 6.34 0 11.498 5.158 11.498 11.499 0 6.34-5.158 11.499-11.498 11.499s-11.499-5.158-11.499-11.499z"/><path d="m363.767 193.966c0-14.612-11.887-26.499-26.498-26.499s-26.499 11.887-26.499 26.499c0 14.611 11.888 26.499 26.499 26.499s26.498-11.887 26.498-26.499zm-37.997 0c0-6.341 5.158-11.499 11.499-11.499 6.34 0 11.498 5.158 11.498 11.499 0 6.34-5.158 11.499-11.498 11.499-6.341 0-11.499-5.158-11.499-11.499z"/></g></g></svg>