<svg id="Capa_1" enable-background="new 0 0 512.017 512.017" height="512" viewBox="0 0 512.017 512.017" width="512" xmlns="http://www.w3.org/2000/svg"><g><path d="m256.009 0c-132.638 0-240 107.341-240 240 0 58.158 20.91 113.89 59 157.597v99.403c0 13.319 16.167 20.049 25.606 10.606l51.305-51.305c157.776 75.913 344.089-38.158 344.089-216.301 0-132.638-107.341-240-240-240z" fill="#3de9f2"/><path d="m496.009 240c0 139.66-114.51 239.93-240 240.17v-480.17c132.66 0 240 107.36 240 240z" fill="#00cef2"/><path d="m256.009 105.9c-49.653 0-90.05 40.396-90.05 90.05 0 8.284 6.716 15 15 15s15-6.716 15-15c0-33.111 26.938-60.05 60.05-60.05s60.05 26.938 60.05 60.05-26.939 60.05-60.05 60.05c-8.284 0-15 6.716-15 15v44.95c0 8.284 6.716 15 15 15s15-6.716 15-15v-31.199c42.539-7.163 75.05-44.257 75.05-88.801 0-49.653-40.397-90.05-90.05-90.05z" fill="#00347b"/><path d="m346.059 195.95c0 44.54-32.51 81.64-75.05 88.8v31.2c0 8.28-6.72 15-15 15v-74.95c33.11 0 60.05-26.94 60.05-60.05s-26.94-60.05-60.05-60.05v-30c49.65 0 90.05 40.4 90.05 90.05z" fill="#002860"/><circle cx="256.009" cy="375.95" fill="#00347b" r="14.95"/><path d="m270.959 375.95c0 8.26-6.69 14.95-14.95 14.95v-29.9c8.26 0 14.95 6.69 14.95 14.95z" fill="#002860"/></g></svg>